<?xml version="1.0" encoding="UTF-8"?>
<svg width="50px" height="50px" viewBox="0 0 50 50" version="1.1" xmlns="http://www.w3.org/2000/svg" xmlns:xlink="http://www.w3.org/1999/xlink">
    <!-- Generator: Sketch 60 (88103) - https://sketch.com -->
    <title>椭圆形</title>
    <desc>Created with Sketch.</desc>
    <g id="统计报表" stroke="none" stroke-width="1" fill="none" fill-rule="evenodd">
        <g id="首页" transform="translate(-597.000000, -340.000000)">
            <g id="wenjian-4备份" transform="translate(597.000000, 340.000000)">
                <circle id="椭圆形" fill="#E7FAFF" cx="25" cy="25" r="25"></circle>
                <g id="ziyuan-5" transform="translate(12.000000, 13.000000)" fill="#2ED4FE" fill-rule="nonzero">
                    <path d="M1.43011859,22.4163704 C1.53572881,22.4158067 1.64016796,22.3939814 1.73732925,22.3521707 L10.4239755,18.6606921 C10.5188918,18.6207788 10.6052361,18.5626374 10.6782188,18.4894931 L23.3903841,5.70306703 C23.5128921,5.58027598 23.5927891,5.42075277 23.6181438,5.24831965 C23.6181438,5.15737018 23.9253544,2.96388286 22.6011706,1.6263906 C21.3882181,0.401247687 18.9252361,0.0213998773 18.6445091,0.0213998773 C18.4004542,-0.00957049216 18.1559596,0.075380931 17.9824172,0.251448546 L5.29673553,13.0218247 C5.24472906,13.0742094 5.20016524,13.1336248 5.16431715,13.1983737 L0.715059297,21.2233273 C0.576009568,21.4751959 0.58144947,21.7830562 0.72930886,22.0297527 C0.877168249,22.2764492 1.14470882,22.4240441 1.43011859,22.4163704 Z M16.8701027,3.62192905 L20.048144,6.8319105 L10.5934711,16.3120557 C10.259451,15.6267532 9.82360923,14.9970913 9.3010676,14.4449165 C8.74230595,13.9163868 8.10630951,13.4779026 7.41542976,13.144874 L16.8701027,3.62192905 Z M18.8140046,1.65849042 C19.5661411,1.80293958 20.8850282,2.16138751 21.4623724,2.75523407 C21.9047299,3.3257197 22.1150003,4.04514544 22.0503101,4.76682244 L21.1445683,5.67631717 L17.966527,2.46633575 L18.8140046,1.65849042 Z M6.35608264,14.3967668 C7.03309159,14.6875548 7.65498085,15.0948498 8.19404988,15.6005098 C8.67800574,16.1235627 9.0702711,16.7260156 9.35403496,17.3820495 L3.25219561,19.9660845 L6.35608264,14.3967668 Z M24.1001467,23.3258651 L0.794510321,23.3258651 C0.355714381,23.3258651 -1.20521428e-08,23.6851545 -1.20521428e-08,24.1283605 C-1.20521428e-08,24.5715664 0.355714381,24.9308558 0.794510321,24.9308558 L24.1001467,24.9308558 C24.5389426,24.9308558 24.894657,24.5715664 24.894657,24.1283605 C24.894657,23.6851545 24.5389426,23.3258651 24.1001467,23.3258651 Z" id="形状"></path>
                    <path d="M15.0956963,9.95094245 C15.3063425,9.95075516 15.5082936,9.86608392 15.6571502,9.71554383 L17.2461709,8.1105531 C17.562104,7.79735423 17.5668468,7.28476801 17.2567644,6.96565973 C16.9466819,6.64655145 16.4391961,6.64176092 16.123263,6.95495978 L14.5342423,8.5599505 C14.2914943,8.78701468 14.2134669,9.14225531 14.3383716,9.4517045 C14.4632763,9.76115369 14.7649655,9.96003097 15.0956963,9.95094245 Z" id="路径"></path>
                </g>
            </g>
        </g>
    </g>
</svg>