<?xml version="1.0" encoding="UTF-8"?>
<svg width="50px" height="50px" viewBox="0 0 50 50" version="1.1" xmlns="http://www.w3.org/2000/svg" xmlns:xlink="http://www.w3.org/1999/xlink">
    <!-- Generator: Sketch 60 (88103) - https://sketch.com -->
    <title>发起签约</title>
    <desc>Created with Sketch.</desc>
    <g id="统计报表" stroke="none" stroke-width="1" fill="none" fill-rule="evenodd">
        <g id="首页" transform="translate(-1770.000000, -320.000000)" fill="#02AEFE">
            <path d="M1801.00096,320 C1801.55272,320 1802,320.447284 1802,320.999036 C1802,321.5508 1801.55273,321.998102 1801.00096,321.998137 L1776,321.999743 C1773.79096,322.000142 1772.00026,323.790961 1772,326 L1772,363.992766 C1772,366.201905 1773.79086,367.992766 1776,367.992766 L1808,367.992766 C1810.20914,367.992766 1812,366.201905 1812,363.992766 L1812,348 C1812,347.447715 1812.44772,347 1813,347 C1813.55228,347 1814,347.447715 1814,348 L1814,364 C1814,367.313708 1811.31371,370 1808,370 L1776,370 C1772.68629,370 1770,367.313708 1770,364 L1770,326 C1770,322.686292 1772.68629,320 1776,320 L1801.00096,320 Z M1777,361.000517 L1807.00827,361.016036 C1807.55607,361.016319 1808,361.460476 1808,362.008274 C1808,362.555989 1807.55599,363 1807.00827,363 L1777,363 C1776.44772,363 1776,362.552285 1776,362 C1776,361.487429 1776.38584,361.064977 1776.88292,361.007241 L1777,361.000517 L1777,361.000517 Z M1802.99173,355 C1803.54858,355 1804,355.45142 1804,356.008274 C1804,356.565129 1803.54858,357.016548 1802.99173,357.016548 L1781.00827,357.016548 C1780.45142,357.016548 1780,356.565129 1780,356.008274 C1780,355.45142 1780.45142,355 1781.00827,355 L1802.99173,355 Z M1812.11373,325.00719 L1817.77058,330.664044 L1801.89411,346.540511 C1801.63823,346.796392 1801.33817,347.003868 1801.00842,347.152913 L1792.47634,351.009347 C1792.2247,351.123083 1791.92851,351.011296 1791.81478,350.759663 C1791.75605,350.629729 1791.75559,350.480901 1791.81352,350.350606 L1795.62405,341.779485 C1795.77359,341.443132 1795.98375,341.13717 1796.24403,340.876887 L1812.11373,325.00719 Z M1818.83124,323.94653 C1820.39334,325.508627 1820.39334,328.041287 1818.83124,329.603384 L1818.47769,329.956937 L1812.82083,324.300083 L1813.17439,323.94653 C1814.73648,322.384433 1817.26914,322.384433 1818.83124,323.94653 Z" id="发起签约"></path>
        </g>
    </g>
</svg>