<?xml version="1.0" encoding="UTF-8"?>
<svg width="50px" height="50px" viewBox="0 0 50 50" version="1.1" xmlns="http://www.w3.org/2000/svg" xmlns:xlink="http://www.w3.org/1999/xlink">
    <!-- Generator: Sketch 60 (88103) - https://sketch.com -->
    <title>椭圆形</title>
    <desc>Created with Sketch.</desc>
    <g id="统计报表" stroke="none" stroke-width="1" fill="none" fill-rule="evenodd">
        <g id="首页" transform="translate(-1448.000000, -490.000000)">
            <g id="wenjian-4备份-8" transform="translate(1448.000000, 490.000000)">
                <circle id="椭圆形" fill="#FEF0E6" cx="25" cy="25" r="25"></circle>
                <path d="M37,22.9375 C37,23.9791667 36.4791667,24.5 35.4375,24.5 L35.4375,24.5 L35.4375,26.630426 C35.4375,27.2936691 35.087112,27.9165233 34.6185693,28.385048 L34.6185693,28.385048 L33.5220817,29.67634 C33.3605264,29.8374818 33.3605264,30.0996587 33.5220817,30.261214 L33.5220817,30.261214 L34.6185693,31.5520925 C35.087112,32.0210486 35.4375,32.6439028 35.4375,33.3067145 L35.4375,33.3067145 L35.4375,35.4375 C36.4791667,35.4375 37,35.9583333 37,37 L37,37 L26.0625,37 C26.0625,35.9583333 26.5833333,35.4375 27.625,35.4375 L27.625,35.4375 L27.6249084,33.3067145 C27.6249084,32.6439028 27.9376158,32.0210486 28.4061584,31.5520925 L28.4061584,31.5520925 L29.5715018,30.261214 C29.7328414,30.0996587 29.7328414,29.8375537 29.5715018,29.6764119 L29.5715018,29.6764119 L28.4061584,28.385048 C27.9376158,27.9165233 27.6245339,27.2936691 27.6245339,26.630426 L27.6245339,26.630426 L27.625,24.5 C26.5833333,24.5 26.0625,23.9791667 26.0625,22.9375 L26.0625,22.9375 Z M30.3125,12 C31.4170695,12 32.3125,12.8954305 32.3125,14 L32.3125,20.59375 C32.3125,21.0252225 31.9627225,21.375 31.53125,21.375 C31.0997775,21.375 30.75,21.0252225 30.75,20.59375 L30.75,14.5625 C30.75,14.0102153 30.3022847,13.5625 29.75,13.5625 L14.5625,13.5625 C14.0102153,13.5625 13.5625,14.0102153 13.5625,14.5625 L13.5625,32.875 C13.5625,33.4272847 14.0102153,33.875 14.5625,33.875 L23.71875,33.875 C24.1502225,33.875 24.5,34.2247775 24.5,34.65625 C24.5,35.0877225 24.1502225,35.4375 23.71875,35.4375 L14,35.4375 C12.8954305,35.4375 12,34.5420695 12,33.4375 L12,14 C12,12.8954305 12.8954305,12 14,12 L30.3125,12 Z M32.3159901,30.75 L30.7697014,30.75 C30.6972012,30.9692057 30.626606,31.1237868 30.5579158,31.2137435 L30.5579158,31.2137435 L29.5715018,32.5050354 C29.3329857,32.8171995 29.2015142,33.2328611 29.2015142,33.67437 L29.2015142,33.67437 L29.1874084,35.4375 L33.8782245,35.4375 L33.8923302,33.67437 C33.8923302,33.2328611 33.7609273,32.8171995 33.5220817,32.5050354 L33.5220817,32.5050354 L32.5359972,31.2137435 C32.467307,31.1237868 32.3939713,30.9692057 32.3159901,30.75 L32.3159901,30.75 Z M20.59375,27.625 C21.0252225,27.625 21.375,27.9747775 21.375,28.40625 C21.375,28.8377225 21.0252225,29.1875 20.59375,29.1875 L17.46875,29.1875 C17.0372775,29.1875 16.6875,28.8377225 16.6875,28.40625 C16.6875,27.9747775 17.0372775,27.625 17.46875,27.625 L20.59375,27.625 Z M33.8782245,24.5 L29.2015142,24.5 L29.1875,26.0625 C29.1875,26.5044224 29.3249838,27.1202825 29.563445,27.4325185 L29.563445,27.4325185 L30.549914,28.7238104 C30.6529492,28.8586915 30.7242253,29.0182876 30.7697014,29.1875 L30.7697014,29.1875 L32.3159901,29.1875 C32.3613563,29.0182876 32.432907,28.8586915 32.5359423,28.7238104 L32.5359423,28.7238104 L33.5220817,27.4325185 C33.7609273,27.1202825 33.8923302,26.5044224 33.8923302,26.0625 L33.8923302,26.0625 L33.8782245,24.5 Z M23.71875,22.15625 C24.1502225,22.15625 24.5,22.5060275 24.5,22.9375 C24.5,23.3689725 24.1502225,23.71875 23.71875,23.71875 L17.46875,23.71875 C17.0372775,23.71875 16.6875,23.3689725 16.6875,22.9375 C16.6875,22.5060275 17.0372775,22.15625 17.46875,22.15625 L23.71875,22.15625 Z M26.84375,16.6875 C27.2752225,16.6875 27.625,17.0372775 27.625,17.46875 C27.625,17.9002225 27.2752225,18.25 26.84375,18.25 L17.46875,18.25 C17.0372775,18.25 16.6875,17.9002225 16.6875,17.46875 C16.6875,17.0372775 17.0372775,16.6875 17.46875,16.6875 L26.84375,16.6875 Z" id="合并形状" fill="#FA6400"></path>
            </g>
        </g>
    </g>
</svg>