<?xml version="1.0" encoding="UTF-8"?>
<svg width="50px" height="50px" viewBox="0 0 50 50" version="1.1" xmlns="http://www.w3.org/2000/svg" xmlns:xlink="http://www.w3.org/1999/xlink">
    <!-- Generator: Sketch 60 (88103) - https://sketch.com -->
    <title>椭圆形</title>
    <desc>Created with Sketch.</desc>
    <g id="统计报表" stroke="none" stroke-width="1" fill="none" fill-rule="evenodd">
        <g id="首页" transform="translate(-1164.000000, -340.000000)">
            <g id="wenjian-4备份-3" transform="translate(1164.000000, 340.000000)">
                <circle id="椭圆形" fill="#FFFBE4" cx="25" cy="25" r="25"></circle>
                <g id="renyuan" transform="translate(12.000000, 12.000000)" fill="#F7B500" fill-rule="nonzero">
                    <path d="M8.59017857,13.1511161 C5.72898665,11.2827722 4.59187181,7.6496313 5.87733803,4.4834499 C7.16280426,1.31726851 10.5107295,-0.494950941 13.8645589,0.159997094 C17.2183882,0.814945128 19.6383929,3.75357763 19.6383929,7.17075893 C19.6383929,11.1149527 16.4415151,14.31263 12.4973214,14.3136161 C6.58125,14.3136161 1.78571429,19.1109375 1.78571429,25.0279018 L0,25.0279018 C0,19.4886161 3.60178571,14.7912946 8.59017857,13.1511161 Z M12.4973214,12.5279019 C15.455641,12.5274087 17.8535714,10.1290786 17.8535714,7.17075893 C17.8535714,5.00391566 16.5482488,3.05045051 14.5463121,2.22131893 C12.5443754,1.39218734 10.2401027,1.85068541 8.70804084,3.38300267 C7.17597897,4.91531993 6.71786498,7.21966901 7.54733024,9.22146749 C8.3767955,11.223266 10.3304782,12.5282629 12.4973214,12.5279019 L12.4973214,12.5279019 Z M25,18.9493304 C25,19.5287946 24.8839286,20.0904018 24.6517857,20.6350446 C24.4044643,21.2189732 24.0660714,21.6770089 23.6366071,22.0100446 C23.1428571,22.3939732 22.6214286,22.5850446 22.0732143,22.5850446 C21.7784448,22.5900185 21.4899757,22.4995 21.2508929,22.3270089 C21.1526786,22.2537946 21.0410714,22.1234375 20.9169643,21.9368304 C20.4625,22.3832589 19.9294643,22.6064732 19.3169643,22.6064732 C18.7041173,22.6164691 18.1133593,22.3777822 17.6794643,21.9448661 C17.1410714,21.4198661 16.8714286,20.7234375 16.8714286,19.8546875 C16.8714286,18.8787946 17.2151786,18.1154018 17.9017857,17.5662946 C18.3857143,17.1787946 18.9589286,16.9850446 19.6205357,16.9850446 C20.0553571,16.9850446 20.5125,17.1296875 20.9910714,17.4189732 L21.0803571,17.1029018 L22.4803571,17.1029018 L22.0732143,20.4216518 C22.0471651,20.6439007 22.034642,20.8675269 22.0357143,21.0912946 C22.0357143,21.2823661 22.0928571,21.3779018 22.20625,21.3779018 C22.2955357,21.3779018 22.39375,21.3555804 22.5026786,21.3118304 C22.8883929,21.1546875 23.1973214,20.8386161 23.4294643,20.3627232 C23.63125,19.9457589 23.7330357,19.5091518 23.7330357,19.0529018 C23.7330357,18.1448661 23.4410714,17.3743304 22.8580357,16.7421875 C22.1080357,15.9279018 21.0928571,15.5207589 19.8133929,15.5207589 C18.7866071,15.5207589 17.8866071,15.8466518 17.1169643,16.4993304 C16.1580357,17.3082589 15.6794643,18.3636161 15.6794643,19.6636161 C15.6794643,21.0716518 16.2294643,22.1725446 17.33125,22.9671875 C18.0321429,23.4725446 18.9142857,23.7261161 19.9758929,23.7261161 C20.8553571,23.7261161 21.6482143,23.5707589 22.3544643,23.2618304 L22.84375,23.0484375 L23.0660714,22.9377232 C23.0857143,22.9287946 23.1196429,22.9136161 23.1696429,22.8930804 L23.6517857,24.1073661 L23.5696429,24.1448661 C23.5323324,24.1637371 23.4954196,24.1833842 23.4589286,24.2037946 L23.3848214,24.2404018 L23.0294643,24.4020089 C22.1151786,24.8189732 21.1053571,25.0279018 19.9982143,25.0279018 C18.6053571,25.0279018 17.4348214,24.6886161 16.4866071,24.0127232 C15.7990467,23.5222069 15.2428017,22.8699836 14.8669643,22.1136161 C14.482544,21.3568322 14.2833291,20.5195787 14.2856931,19.6707589 C14.2856931,18.2627232 14.75,17.0636161 15.6785714,16.0725446 C16.775,14.9002232 18.1633929,14.3136161 19.8428571,14.3136161 C21.4633929,14.3136161 22.7803571,14.8511161 23.7919643,15.9252232 C24.5982143,16.7779018 25,17.7868304 25,18.9493304 Z M20.8428571,19.5457589 C20.8428571,19.1975446 20.725,18.9180804 20.4875,18.7064732 C20.25,18.4957589 19.9544643,18.3904018 19.5982143,18.3904018 C19.3071429,18.3904018 19.0446429,18.4975446 18.8125,18.7145089 C18.5116071,18.9984375 18.3607143,19.4037946 18.3607143,19.9287946 C18.3607143,20.2671875 18.4428571,20.5537946 18.6053571,20.7895089 C18.7928571,21.0636161 19.0473214,21.2011161 19.36875,21.2011161 C19.7839286,21.2011161 20.1366071,21.0243304 20.4285714,20.6716518 C20.7053571,20.3430804 20.8428571,19.9671875 20.8428571,19.5457589 L20.8428571,19.5457589 Z" id="形状"></path>
                </g>
            </g>
        </g>
    </g>
</svg>