<?xml version="1.0" encoding="UTF-8"?>
<svg width="50px" height="50px" viewBox="0 0 50 50" version="1.1" xmlns="http://www.w3.org/2000/svg" xmlns:xlink="http://www.w3.org/1999/xlink">
    <!-- Generator: Sketch 60 (88103) - https://sketch.com -->
    <title>椭圆形</title>
    <desc>Created with Sketch.</desc>
    <g id="统计报表" stroke="none" stroke-width="1" fill="none" fill-rule="evenodd">
        <g id="首页" transform="translate(-876.000000, -340.000000)">
            <g id="wenjian-4备份-2" transform="translate(876.000000, 340.000000)">
                <circle id="椭圆形" fill="#D7FCF5" cx="25" cy="25" r="25"></circle>
                <g id="qianshu" transform="translate(13.000000, 12.000000)" fill="#2EDBB5" fill-rule="nonzero">
                    <g id="tubiao-">
                        <path d="M20.6515584,25.8442912 L0.596865834,25.8442912 C0.23874634,25.8442912 -4.54747351e-13,25.5458583 -4.54747351e-13,25.2474254 L-4.54747351e-13,0.596865834 C-4.54747351e-13,0.23874634 0.298432917,0 0.596865834,0 L14.086034,0 C14.4441535,0 14.6828999,0.298432917 14.6828999,0.596865834 C14.6828999,0.895298751 14.3844669,1.19373167 14.086034,1.1937317 L1.1937317,1.1937317 L1.1937317,24.590873 L20.0546925,24.590873 L20.0546925,14.6232133 C20.0546925,14.2650938 20.3531254,14.0263474 20.6515584,14.0263474 C20.9499913,14.0263474 21.2484242,14.3247804 21.2484242,14.6232133 L21.2484242,25.2474254 C21.2484242,25.5458583 21.0096779,25.8442912 20.6515584,25.8442912 Z" id="路径"></path>
                        <path d="M18.264095,22.0243498 L3.34244877,22.0243498 C2.98432927,22.0243498 2.7455829,21.7259169 2.7455829,21.427484 C2.7455829,21.129051 3.04401581,20.8306181 3.34244877,20.8306181 L18.264095,20.8306181 C18.6222145,20.8306181 18.8609608,21.129051 18.8609608,21.427484 C18.8609608,21.7259169 18.6222145,22.0243498 18.264095,22.0243498 Z M16.5928706,19.0400206 L5.01367311,19.0400206 C4.65555362,19.0400206 4.41680728,18.7415876 4.41680728,18.4431547 C4.41680728,18.1447218 4.7152402,17.8462889 5.01367311,17.8462889 L16.6525572,17.8462889 C17.0106766,17.8462889 17.249423,18.1447218 17.249423,18.4431547 C17.249423,18.7415877 16.9509901,19.0400206 16.5928706,19.0400206 L16.5928706,19.0400206 Z M14.1457206,16.2944377 L8.71424137,16.2944377 C8.53518161,16.2944377 8.35612188,16.2347511 8.23674869,16.0556913 C8.11737554,15.9363182 8.05768893,15.7572584 8.11737554,15.5781986 L9.0723609,10.1467194 C9.0723609,10.0273463 9.13204748,9.90797308 9.25142063,9.78859992 L19.2190803,0.179059764 C19.4578267,-0.0596865767 19.8756328,-0.0596865767 20.1143791,0.179059764 L24.7699327,4.83461338 C25.008679,5.07335973 25.008679,5.49116583 24.7699327,5.72991214 L14.6232133,16.1153779 C14.5038401,16.1750645 14.3247804,16.2944377 14.1457206,16.2944377 L14.1457206,16.2944377 Z M9.49016697,15.0410194 L13.9069743,15.0410194 L23.4568278,5.31210607 L19.6368864,1.49216462 L10.2660926,10.5048389 L9.49016697,15.0410194 Z" id="形状"></path>
                    </g>
                </g>
            </g>
        </g>
    </g>
</svg>