<?xml version="1.0" encoding="UTF-8"?>
<svg width="51px" height="50px" viewBox="0 0 51 50" version="1.1" xmlns="http://www.w3.org/2000/svg" xmlns:xlink="http://www.w3.org/1999/xlink">
    <!-- Generator: Sketch 60 (88103) - https://sketch.com -->
    <title>椭圆形</title>
    <desc>Created with Sketch.</desc>
    <g id="统计报表" stroke="none" stroke-width="1" fill="none" fill-rule="evenodd">
        <g id="首页" transform="translate(-313.000000, -490.000000)">
            <g id="wenjian-4备份-4" transform="translate(313.000000, 490.000000)">
                <circle id="椭圆形" fill="#E2EDFF" cx="25" cy="25" r="25"></circle>
                <path d="M15,38 C13.9456382,38 13.0818349,37.1841222 13.0054857,36.1492623 L13,36 L13,15 C13,13.9456382 13.8158778,13.0818349 14.8507377,13.0054857 L15,13 L34.4375,13 C35.4918618,13 36.3556651,13.8158778 36.4320143,14.8507377 L36.4375,15 L36.4375,22.375 C36.4375,22.8064725 36.0877225,23.15625 35.65625,23.15625 C35.2247775,23.15625 34.875,22.8064725 34.875,22.375 L34.875,22.375 L34.875,15.5625 C34.875,15.0496642 34.4889598,14.6269928 33.9916211,14.5692277 L33.875,14.5625 L15.5625,14.5625 C15.0496642,14.5625 14.6269928,14.9485402 14.5692277,15.4458789 L14.5625,15.5625 L14.5625,35.4403883 C14.5625,35.9521756 14.9470218,36.3743675 15.4432376,36.4333459 L15.5596075,36.4403842 L23.7376092,36.4633061 C23.8014108,36.4464689 23.868408,36.4375 23.9375,36.4375 C24.3689725,36.4375 24.71875,36.7872775 24.71875,37.21875 C24.71875,37.6502225 24.3689725,38 23.9375,38 L23.9375,38 L15,38 Z M30.96875,23.9375 C34.8520204,23.9375 38,27.0854796 38,30.96875 C38,34.8520204 34.8520204,38 30.96875,38 C27.0854796,38 23.9375,34.8520204 23.9375,30.96875 C23.9375,27.0854796 27.0854796,23.9375 30.96875,23.9375 Z M30.96875,25.5 C27.9484218,25.5 25.5,27.9484574 25.5,30.9686431 C25.5,33.9889713 27.9484218,36.4373931 30.96875,36.4373931 C33.9890782,36.4373931 36.4375,33.9889713 36.4375,30.9686431 C36.4375,27.9484574 33.9890782,25.5 30.96875,25.5 Z M30.9685627,27.84375 L31.998307,29.8077471 L34.0935627,30.2311868 L32.6341837,31.8672356 L32.8997833,34.09375 L30.9685627,33.1422238 L29.0373422,34.09375 L29.3029418,31.8672356 L27.8435627,30.2311868 L29.9388185,29.8077471 L30.9685627,27.84375 Z M20.03125,28.625 C20.4627225,28.625 20.8125,28.9747775 20.8125,29.40625 C20.8125,29.8017664 20.5185897,30.1286364 20.137261,30.1803681 L20.03125,30.1875 L18.46875,30.1875 C18.0372775,30.1875 17.6875,29.8377225 17.6875,29.40625 C17.6875,29.0107336 17.9814103,28.6838636 18.362739,28.6321319 L18.46875,28.625 L20.03125,28.625 Z M23.1553345,23.9375 C23.5873126,23.9375 23.9375,24.2876874 23.9375,24.7196655 C23.9375,25.1156454 23.6432453,25.4428985 23.2614697,25.4946908 L23.1553345,25.5018311 L18.4696655,25.5018311 C18.0376874,25.5018311 17.6875,25.1516436 17.6875,24.7196655 C17.6875,24.3236856 17.9817547,23.9964326 18.3635303,23.9446402 L18.4696655,23.9375 L23.1553345,23.9375 Z M30.9687282,19.2499564 C31.4002127,19.2499564 31.75,19.5997437 31.75,20.0312282 C31.75,20.4267557 31.4560815,20.7536348 31.0747422,20.8053679 L30.9687282,20.8125 L18.4687718,20.8125 C18.0372873,20.8125 17.6875,20.4627127 17.6875,20.0312282 C17.6875,19.6357007 17.9814185,19.3088216 18.3627578,19.2570885 L18.4687718,19.2499564 L30.9687282,19.2499564 Z" id="合并形状" fill="#338BFE"></path>
            </g>
        </g>
    </g>
</svg>