<?xml version="1.0" encoding="UTF-8"?>
<svg width="50px" height="50px" viewBox="0 0 50 50" version="1.1" xmlns="http://www.w3.org/2000/svg" xmlns:xlink="http://www.w3.org/1999/xlink">
    <!-- Generator: Sketch 60 (88103) - https://sketch.com -->
    <title>椭圆形</title>
    <desc>Created with Sketch.</desc>
    <g id="统计报表" stroke="none" stroke-width="1" fill="none" fill-rule="evenodd">
        <g id="首页" transform="translate(-1164.000000, -490.000000)">
            <g id="wenjian-4备份-6" transform="translate(1164.000000, 490.000000)">
                <circle id="椭圆形" fill="#FFFBE4" cx="25" cy="25" r="25"></circle>
                <path d="M30.9686692,23.9375 C32.8493913,23.9375 34.6136663,24.6676869 35.9383267,25.9990118 C37.263189,27.3270246 38,29.0946117 38,30.9686692 C38,32.8493913 37.2696515,34.6136663 35.9383267,35.9383267 C34.6103543,37.266501 32.8493913,38 30.9686692,38 C29.0881491,38 27.3238741,37.2696515 25.9990118,35.9383267 C24.670999,34.6136663 23.9375,32.8460792 23.9375,30.9686692 C23.9375,29.0881491 24.6676869,27.3238741 25.9990118,25.9990118 C27.3238741,24.670999 29.0912996,23.9375 30.9686692,23.9375 Z M31.3125,13 C32.4170695,13 33.3125,13.8954305 33.3125,15 L33.3125,20.03125 C33.3125,20.4627225 32.9627225,20.8125 32.53125,20.8125 C32.0997775,20.8125 31.75,20.4627225 31.75,20.03125 L31.75,15.5625 C31.75,15.0102153 31.3022847,14.5625 30.75,14.5625 L15.5625,14.5625 C15.0102153,14.5625 14.5625,15.0102153 14.5625,15.5625 L14.5625,33.875 C14.5625,34.4272847 15.0102153,34.875 15.5625,34.875 L21.59375,34.875 C22.0252225,34.875 22.375,35.2247775 22.375,35.65625 C22.375,36.0877225 22.0252225,36.4375 21.59375,36.4375 L15,36.4375 C13.8954305,36.4375 13,35.5420695 13,34.4375 L13,15 C13,13.8954305 13.8954305,13 15,13 L31.3125,13 Z M30.96875,33.3125 C29.7282667,33.3125 28.7128699,34.27621 28.6304071,35.4957825 L28.625,35.65625 L28.6252488,35.9100928 C29.3358065,36.2482084 30.1304671,36.4375 30.96875,36.4375 C31.807329,36.4375 32.6022292,36.2481004 33.3129483,35.9098035 L33.3125,35.65625 C33.3125,34.3618326 32.2631674,33.3125 30.96875,33.3125 Z M30.96875,25.5 C27.9518812,25.5 25.5,27.9518812 25.5,30.96875 C25.5,32.4968258 26.1289516,33.8798667 27.1417092,34.8728072 C27.3485757,33.8547952 27.951189,32.9813969 28.7816734,32.4191922 C28.2024925,31.8524034 27.8433755,31.0618898 27.8433755,30.1875 C27.8433755,28.4616102 29.2424856,27.0625 30.9683755,27.0625 C32.6942653,27.0625 34.0933755,28.4616102 34.0933755,30.1875 C34.0933755,31.0618898 33.7342585,31.8524034 33.1554701,32.4195951 C33.9862614,32.981111 34.5893174,33.8550773 34.7964814,34.873116 C35.8081833,33.8807853 36.4375,32.4973333 36.4375,30.96875 C36.4375,27.9518812 33.9858242,25.5 30.96875,25.5 Z M30.9683755,28.625 C30.1054306,28.625 29.4058755,29.3245551 29.4058755,30.1875 C29.4058755,31.0504449 30.1054306,31.75 30.9683755,31.75 C31.8313204,31.75 32.5308755,31.0504449 32.5308755,30.1875 C32.5308755,29.3245551 31.8313204,28.625 30.9683755,28.625 Z M21.59375,28.625 C22.0252225,28.625 22.375,28.9747775 22.375,29.40625 C22.375,29.8377225 22.0252225,30.1875 21.59375,30.1875 L18.46875,30.1875 C18.0372775,30.1875 17.6875,29.8377225 17.6875,29.40625 C17.6875,28.9747775 18.0372775,28.625 18.46875,28.625 L21.59375,28.625 Z M24.71875,23.15625 C25.1502225,23.15625 25.5,23.5060275 25.5,23.9375 C25.5,24.3689725 25.1502225,24.71875 24.71875,24.71875 L18.46875,24.71875 C18.0372775,24.71875 17.6875,24.3689725 17.6875,23.9375 C17.6875,23.5060275 18.0372775,23.15625 18.46875,23.15625 L24.71875,23.15625 Z M27.84375,17.6875 C28.2752225,17.6875 28.625,18.0372775 28.625,18.46875 C28.625,18.9002225 28.2752225,19.25 27.84375,19.25 L18.46875,19.25 C18.0372775,19.25 17.6875,18.9002225 17.6875,18.46875 C17.6875,18.0372775 18.0372775,17.6875 18.46875,17.6875 L27.84375,17.6875 Z" id="合并形状" fill="#F7B500"></path>
            </g>
        </g>
    </g>
</svg>