<?xml version="1.0" encoding="UTF-8"?>
<svg width="50px" height="50px" viewBox="0 0 50 50" version="1.1" xmlns="http://www.w3.org/2000/svg" xmlns:xlink="http://www.w3.org/1999/xlink">
    <!-- Generator: Sketch 60 (88103) - https://sketch.com -->
    <title>椭圆形</title>
    <desc>Created with Sketch.</desc>
    <g id="统计报表" stroke="none" stroke-width="1" fill="none" fill-rule="evenodd">
        <g id="首页" transform="translate(-313.000000, -340.000000)">
            <g id="wenjian-4" transform="translate(313.000000, 340.000000)">
                <circle id="椭圆形" fill="#E2EDFF" cx="25" cy="25" r="25"></circle>
                <path d="M33.4375,13 C34.5420695,13 35.4375,13.8954305 35.4375,15 L35.4375,15 L35.4375,23.9375 C36.3004449,23.9375 37,24.6370551 37,25.5 L37,25.5 L37,36 C37,37.1045695 36.1045695,38 35,38 L35,38 L18.25,38 C17.3870551,38 16.6875,37.3004449 16.6875,36.4375 L16.6875,36.4375 L14,36.4375 C12.8954305,36.4375 12,35.5420695 12,34.4375 L12,34.4375 L12,18.125 C12,17.0204305 12.8954305,16.125 14,16.125 L14,16.125 L15.125,16.125 L15.125,15 C15.125,13.8954305 16.0204305,13 17.125,13 L17.125,13 Z M34.9375,25.5 L28.8746249,25.5 C28.5778451,25.5 28.2963975,25.631823 28.1064037,25.8598156 L28.1064037,25.8598156 L25.0996927,29.4678688 C24.719705,29.923854 24.1568098,30.1875 23.5632501,30.1875 L23.5632501,30.1875 L19.25,30.1875 C18.6977153,30.1875 18.25,30.6352153 18.25,31.1875 L18.25,31.1875 L18.25,35.9375 C18.25,36.2136424 18.4738576,36.4375 18.75,36.4375 L18.75,36.4375 L34.4375,36.4375 C34.9897847,36.4375 35.4375,35.9897847 35.4375,35.4375 L35.4375,35.4375 L35.4375,26 C35.4375,25.7238576 35.2136424,25.5 34.9375,25.5 L34.9375,25.5 Z M29.75,17.6875 L14.5625,17.6875 C14.0102153,17.6875 13.5625,18.1352153 13.5625,18.6875 L13.5625,18.6875 L13.5625,33.875 C13.5625,34.4272847 14.0102153,34.875 14.5625,34.875 L14.5625,34.875 L16.6875,34.875 L16.6875,30.625 C16.6875,29.5204305 17.5829305,28.625 18.6875,28.625 L18.6875,28.625 L23.2503751,28.625 C23.5471549,28.625 23.8286025,28.493177 24.0185963,28.2651844 L24.0185963,28.2651844 L27.0253073,24.6571312 C27.405295,24.201146 27.9681902,23.9375 28.5617499,23.9375 L28.5617499,23.9375 L30.75,23.9375 L30.75,18.6875 C30.75,18.1352153 30.3022847,17.6875 29.75,17.6875 L29.75,17.6875 Z M33.09375,33.3125 C33.5252225,33.3125 33.875,33.6622775 33.875,34.09375 C33.875,34.5252225 33.5252225,34.875 33.09375,34.875 L33.09375,34.875 L29.96875,34.875 C29.5372775,34.875 29.1875,34.5252225 29.1875,34.09375 C29.1875,33.6622775 29.5372775,33.3125 29.96875,33.3125 L29.96875,33.3125 Z M23.71875,23.15625 C24.1502225,23.15625 24.5,23.5060275 24.5,23.9375 C24.5,24.3689725 24.1502225,24.71875 23.71875,24.71875 L23.71875,24.71875 L17.46875,24.71875 C17.0372775,24.71875 16.6875,24.3689725 16.6875,23.9375 C16.6875,23.5060275 17.0372775,23.15625 17.46875,23.15625 L17.46875,23.15625 Z M32.875,14.5625 L17.6875,14.5625 C17.1352153,14.5625 16.6875,15.0102153 16.6875,15.5625 L16.6875,15.5625 L16.6875,16.125 L30.3125,16.125 C31.4170695,16.125 32.3125,17.0204305 32.3125,18.125 L32.3125,18.125 L32.3125,23.9375 L33.875,23.9375 L33.875,15.5625 C33.875,15.0102153 33.4272847,14.5625 32.875,14.5625 L32.875,14.5625 Z M26.84375,20.03125 C27.2752225,20.03125 27.625,20.3810275 27.625,20.8125 C27.625,21.2439725 27.2752225,21.59375 26.84375,21.59375 L26.84375,21.59375 L17.46875,21.59375 C17.0372775,21.59375 16.6875,21.2439725 16.6875,20.8125 C16.6875,20.3810275 17.0372775,20.03125 17.46875,20.03125 L17.46875,20.03125 Z" id="合并形状" fill="#338BFE"></path>
            </g>
        </g>
    </g>
</svg>