<?xml version="1.0" encoding="UTF-8"?>
<svg width="50px" height="50px" viewBox="0 0 50 50" version="1.1" xmlns="http://www.w3.org/2000/svg" xmlns:xlink="http://www.w3.org/1999/xlink">
    <!-- Generator: Sketch 60 (88103) - https://sketch.com -->
    <title>合并形状</title>
    <desc>Created with Sketch.</desc>
    <g id="统计报表" stroke="none" stroke-width="1" fill="none" fill-rule="evenodd">
        <g id="首页" transform="translate(-1770.000000, -470.000000)" fill="#02ADFF">
            <path d="M1806,470 C1809.31371,470 1812,472.686292 1812,476 L1812,476 L1812,490 C1812,490.552285 1811.55228,491 1811,491 C1810.44772,491 1810,490.552285 1810,490 L1810,490 L1810,475.990029 C1810,473.78089 1808.20914,471.990029 1806,471.990029 L1806,471.990029 L1776.00646,471.990029 C1773.79754,471.99059 1772.00677,473.781109 1772.00589,475.990029 L1772.00589,475.990029 L1772.00056,514 L1772.00056,514 L1772.0049,514.200202 C1772.10892,516.316592 1773.8578,518.000544 1776,518 L1776,518 L1793,518 C1793.55228,518 1794,518.447715 1794,519 C1794,519.552285 1793.55228,520 1793,520 L1793,520 L1776,520 C1772.68629,520 1770,517.313708 1770,514 L1770,514 L1770,476 C1770,472.686292 1772.68629,470 1776,470 L1776,470 Z M1808.10298,502.359283 L1809.30891,505.073424 C1809.45981,505.233002 1809.61049,505.392891 1809.76117,505.392891 L1812.47462,505.712046 C1812.92695,505.712046 1813.2286,506.510479 1812.77627,506.829634 L1810.66575,508.745654 C1810.51507,508.905231 1810.51507,509.064809 1810.51507,509.384198 L1811.11808,512.257916 C1811.26876,512.73696 1810.66575,513.216005 1810.2135,512.896538 L1807.80133,511.459795 C1807.65065,511.299906 1807.34937,511.299906 1807.19839,511.459795 L1804.78652,512.896538 C1804.33426,513.216005 1803.88193,512.73696 1803.88193,512.257916 L1804.48494,509.384198 C1804.48494,509.22462 1804.48494,508.905231 1804.33426,508.745654 L1802.22374,506.829634 C1801.77141,506.510479 1802.07306,505.871935 1802.5251,505.712046 L1805.23884,505.392891 C1805.38952,505.392891 1805.6908,505.233002 1805.6908,505.073424 L1806.89704,502.359283 C1807.19839,501.880239 1807.80133,501.880239 1808.10298,502.359283 Z M1791,502 C1791.5,502 1792,502.5 1792,503 C1792,503.5 1791.5,504 1791,504 L1791,504 L1777,504 C1776.5,504 1776,503.5 1776,503 C1776,502.5 1776.5,502 1777,502 L1777,502 Z M1797,494 C1797.5,494 1798,494.5 1798,495 C1798,495.5 1797.5,496 1797,496 L1797,496 L1777,496 C1776.5,496 1776,495.5 1776,495 C1776,494.5 1776.5,494 1777,494 L1777,494 Z M1805,486 C1805.5,486 1806,486.5 1806,487 C1806,487.5 1805.5,488 1805,488 L1805,488 L1777,488 C1776.5,488 1776,487.5 1776,487 C1776,486.5 1776.5,486 1777,486 L1777,486 Z M1805,478 C1805.5,478 1806,478.5 1806,479 C1806,479.5 1805.5,480 1805,480 L1805,480 L1777,480 C1776.5,480 1776,479.5 1776,479 C1776,478.5 1776.5,478 1777,478 L1777,478 Z M1818.00848,507.515061 C1818.00848,513.281654 1813.28839,518 1807.51967,518 C1801.75069,518 1797.03094,513.281654 1797.03094,507.515061 C1797.03094,501.748126 1801.75069,497.029865 1807.51967,497.029865 C1813.28839,497.029865 1818.00848,501.748126 1818.00848,507.515061 Z M1807.49996,495 C1800.62486,495 1795,500.622787 1795,507.495344 C1795,514.367673 1800.62486,519.990765 1807.49996,519.990765 C1814.37514,519.990765 1820,514.367673 1820,507.495344 C1820,500.622787 1814.37514,495 1807.49996,495 Z" id="合并形状"></path>
        </g>
    </g>
</svg>