<?xml version="1.0" encoding="UTF-8"?>
<svg width="180px" height="104px" viewBox="0 0 180 104" version="1.1" xmlns="http://www.w3.org/2000/svg" xmlns:xlink="http://www.w3.org/1999/xlink">
    <!-- Generator: Sketch 52.3 (67297) - http://www.bohemiancoding.com/sketch -->
    <title>paper 2</title>
    <desc>Created with Sketch.</desc>
    <defs>
        <linearGradient x1="9.85125389%" y1="119.738363%" x2="70.1766863%" y2="41.9683515%" id="linearGradient-1">
            <stop stop-color="#E6ECF6" offset="0%"></stop>
            <stop stop-color="#F7F9FD" offset="100%"></stop>
        </linearGradient>
        <linearGradient x1="0%" y1="71.6702355%" x2="106.166257%" y2="56.8915662%" id="linearGradient-2">
            <stop stop-color="#FDAE6B" offset="0%"></stop>
            <stop stop-color="#FAE539" offset="100%"></stop>
        </linearGradient>
    </defs>
    <g id="Page-2" stroke="none" stroke-width="1" fill="none" fill-rule="evenodd">
        <g id="合同详情-签署状态" transform="translate(-758.000000, -452.000000)">
            <g id="分组-2" transform="translate(746.000000, 436.000000)">
                <path d="M100.713936,104.217032 C152.076418,104.217032 193.713936,88.0992829 193.713936,68.217032 C193.713936,48.334781 152.076418,32.217032 100.713936,32.217032 C49.3514541,32.217032 7.71393584,48.334781 7.71393584,68.217032 C7.71393584,88.0992829 49.3514541,104.217032 100.713936,104.217032 Z" id="椭圆形" stroke="#C4CFDC" stroke-dasharray="3" transform="translate(100.713936, 68.217032) rotate(22.000000) translate(-100.713936, -68.217032) "></path>
                <g id="paper-2" transform="translate(17.000000, 14.000000)">
                    <path d="M117.638808,9.714099 C121.870488,13.866202 125.478168,17.892209 128.460696,21.792564 C134.670168,29.91177 136.524672,41.134462 136.092648,41.417808 C133.737408,42.964149 120.270192,34.044004 117.638808,26.799219 C116.06136,22.455863 116.06136,16.760897 117.638808,9.714099 Z" id="" fill="#E3E8EE"></path>
                    <path d="M2.10854,80.975991 C33.88966,60.068265 50.54966,34.019445 52.09078,2.829531 C60.4359,1.630095 76.55494,3.126665 117.00038,9.903195 C120.76694,10.534305 121.09958,16.291685 117.99942,27.175553 C131.63542,31.993898 137.88278,36.583888 136.74374,40.945087 C126.85974,78.757187 113.78486,95.996627 94.0527,104.097725 C71.41638,106.86687 40.7687,99.159589 2.10854,80.975991 Z" id="" fill="url(#linearGradient-1)"></path>
                    <path d="M56.2754155,12.414117 C65.8739579,11.6008508 101.568199,13.4195369 115.197256,14.4582136 C115.870962,15.5843261 115.597949,16.0652732 115.197603,16.2341873 C107.412211,15.3392665 62.9336641,12.87185 56.3720233,14.0406594 C55.7508593,13.799165 55.3990342,12.9531851 56.2754155,12.414117 Z" id="矩形" fill="#FFFFFF" transform="translate(85.678210, 14.222430) rotate(5.000000) translate(-85.678210, -14.222430) "></path>
                    <path d="M67.4095797,53.526159 C69.7325253,53.9155403 71.6154101,52.3543244 71.6154101,50.0382432 C71.6149347,47.7221097 69.7320499,45.6689971 67.4091044,45.4521101 C65.0861588,45.2356696 63.2033929,46.7969993 63.2033929,48.94012 C63.2038682,51.083203 65.0871096,53.1363914 67.4095797,53.526159 Z M71.8183787,68.3705519 L65.272458,60.9064868 L57.2033929,72.3963284 L96.9005785,74.4080268 L84.2823388,50.9218389 L71.8183787,68.3705519 Z" id="Fill-3" fill="#FFFFFF" transform="translate(77.051986, 59.920048) rotate(18.000000) translate(-77.051986, -59.920048) "></path>
                </g>
                <path d="M0.783713859,66.4913145 C0.783713859,86.9258502 42.4212321,103.491314 93.7837139,103.491314 C145.146196,103.491314 186.783714,86.9258502 186.783714,66.4913145" id="路径" stroke="#C4CFDC" stroke-dasharray="3" transform="translate(93.783714, 84.991314) rotate(22.000000) translate(-93.783714, -84.991314) "></path>
                <g id="rocket" transform="translate(45.173870, 76.825125) rotate(-1.000000) translate(-45.173870, -76.825125) translate(30.173870, 63.325125)">
                    <polygon id="Shape-5" fill="url(#linearGradient-2)" points="0.23901 16.3068343 5.15982 9.87859346 21.10995 19.8592873 8.89281 5.81865472 14.83173 0.236232283 29.76378 26.4566811"></polygon>
                    <polygon id="Shape-6" fill="#E1A846" points="4.9901452 10.0477552 8.72315386 9.54025795 21.7886929 20.3667848"></polygon>
                    <polygon id="Shape-7" fill="#E6B052" points="8.55347504 9.54024921 9.06250299 5.81864575 21.4493391 20.0284396"></polygon>
                </g>
            </g>
        </g>
    </g>
</svg>