<?xml version="1.0" encoding="UTF-8"?>
<svg width="128px" height="128px" viewBox="0 0 128 128" version="1.1" xmlns="http://www.w3.org/2000/svg" xmlns:xlink="http://www.w3.org/1999/xlink">
    <!-- Generator: Sketch 52.3 (67297) - http://www.bohemiancoding.com/sketch -->
    <title>失败</title>
    <desc>Created with Sketch.</desc>
    <g id="H5" stroke="none" stroke-width="1" fill="none" fill-rule="evenodd">
        <g id="创建云签名失败" transform="translate(-311.000000, -276.000000)" fill="#F76260">
            <g id="失败" transform="translate(311.000000, 276.000000)">
                <path d="M128,64.7901235 C128,99.346963 99.346963,128 63.2098765,128 C28.653037,128 0,99.346963 0,64.7901235 C0,28.653037 28.653037,0 63.2098765,0 C99.346963,0 128,28.653037 128,64.7901235 Z M122,64.7160494 C122,31.9668148 96.0331852,6 63.2839506,6 C31.9668148,6 6,31.9668148 6,64.7160494 C6,96.0331852 31.9668148,122 63.2839506,122 C96.0331852,122 122,96.0331852 122,64.7160494 Z M65,34 C67.6439707,34 69.7873324,36.1433617 69.7873324,38.7873324 C69.7873324,38.856673 69.7858258,38.9260056 69.7828139,38.9952808 L68.1303117,77.0028315 C68.0574446,78.6787737 66.6775255,80 65,80 C63.3224745,80 61.9425554,78.6787737 61.8696883,77.0028315 L60.2171861,38.9952808 C60.1023394,36.3538056 62.1505764,34.1193652 64.7920516,34.0045185 C64.8613268,34.0015065 64.9306593,34 65,34 Z M65,96 C62.2385763,96 60,93.7614237 60,91 C60,88.2385763 62.2385763,86 65,86 C67.7614237,86 70,88.2385763 70,91 C70,93.7614237 67.7614237,96 65,96 Z"></path>
            </g>
        </g>
    </g>
</svg>