<?xml version="1.0" encoding="UTF-8"?>
<svg width="16px" height="16px" viewBox="0 0 16 16" version="1.1" xmlns="http://www.w3.org/2000/svg" xmlns:xlink="http://www.w3.org/1999/xlink">
    <!-- Generator: Sketch 57 (83077) - https://sketch.com -->
    <title>警告 copy 5</title>
    <desc>Created with Sketch.</desc>
    <g id="Page-1" stroke="none" stroke-width="1" fill="none" fill-rule="evenodd">
        <g id="模板管理-新建模板-hover" transform="translate(-797.000000, -876.000000)" fill="#999999">
            <g id="警告-copy-5" transform="translate(797.000000, 876.000000)">
                <path d="M8,4.00003255 C7.5,4.00003255 7.5,4.5125049 7.5,4.50003255 L7.5,9.50003255 C7.5,9.50003255 7.5,9.99991095 8,9.99991095 C8.5,9.99991095 8.5,9.50003255 8.5,9.50003255 L8.5,4.50003255 C8.5,4.5125049 8.5,4.00003255 8,4.00003255 Z M8,10.999911 C7.72497265,10.999911 7.5,11.2249341 7.5,11.4999435 C7.5,11.7749529 7.72497265,11.999911 8,11.999911 C8.27502735,11.999911 8.5,11.7749529 8.5,11.4999435 C8.5,11.2249341 8.27502735,10.999911 8,10.999911 Z" id="Fill-4" transform="translate(8.000000, 7.999972) scale(1, -1) translate(-8.000000, -7.999972) "></path>
                <path d="M15.3700215,4.88586813 C14.9673364,3.93378626 14.3910939,3.07834882 13.6554553,2.34271021 C12.9199286,1.60716108 12.0662137,1.03082918 11.1122974,0.628144055 C10.126211,0.211208349 9.07746236,0 7.99822147,0 C6.91904771,0 5.87020955,0.211208349 4.88412316,0.628144055 C3.93204129,1.03082918 3.07651437,1.60716108 2.34096524,2.34271021 C1.60541611,3.07834882 1.03082918,3.93378626 0.628144055,4.88586813 C0.211208349,5.872044 0,6.92079267 0,8.00005593 C0,9.07920733 0.211208349,10.127956 0.628144055,11.1141319 C1.03082918,12.0662137 1.60716108,12.921763 2.34271021,13.6572898 C3.07834882,14.3928389 3.93204129,14.9691708 4.88586813,15.3718559 C5.872044,15.7888811 6.92079267,16 8.00005593,16 C9.07920733,16 10.127956,15.7888811 11.1141319,15.3718559 C12.0662137,14.9691708 12.921763,14.3928389 13.6572898,13.6572898 C14.3928389,12.921763 14.9691708,12.0680482 15.3718559,11.1141319 C15.7888811,10.127956 16,9.07920733 16,8.00005593 C15.998255,6.92079267 15.7870467,5.87381134 15.3700215,4.88586813 Z M12.9493049,12.9493049 C11.6261152,14.272586 9.86974401,15 8.00005711,15 C6.13034737,15 4.37210285,14.272586 3.05069509,12.9493049 C1.72928732,11.6278971 1,9.86974401 1,8.00005711 C1,6.13034737 1.72741396,4.37210285 3.05069509,3.05069509 C4.37388483,1.72928732 6.13034737,1 8.00005711,1 C9.86974401,1 11.6278971,1.72741396 12.9493049,3.05069509 C14.2707127,4.37388483 15,6.13034737 15,8.00005711 C15,9.86974401 14.2707127,11.6278971 12.9493049,12.9493049 Z" id="Fill-1"></path>
            </g>
        </g>
    </g>
</svg>