<?xml version="1.0" encoding="UTF-8"?>
<svg width="46px" height="28px" viewBox="0 0 46 28" version="1.1" xmlns="http://www.w3.org/2000/svg" xmlns:xlink="http://www.w3.org/1999/xlink">
    <!-- Generator: Sketch 52.3 (67297) - http://www.bohemiancoding.com/sketch -->
    <title>Fill 1</title>
    <desc>Created with Sketch.</desc>
    <g id="Page-2" stroke="none" stroke-width="1" fill="none" fill-rule="evenodd">
        <g id="快捷签署-H5-1" transform="translate(-640.000000, -295.000000)">
            <g id="下箭头-copy-3" transform="translate(640.000000, 295.000000)">
                <g id="Group-2">
                    <path d="M28.307637,14.0000147 L16.1210622,25.8274508 C15.6087687,26.3241664 15.6087687,27.1303959 16.1210622,27.6271115 C16.6328723,28.1242962 17.4636021,28.1242962 17.9754122,27.6271115 L31.0894641,14.8998255 C31.6017576,14.4031099 31.6017576,13.5968803 31.0894641,13.1001648 L17.9754122,0.372878718 C17.7194468,0.124305936 17.3838521,0 17.0482574,0 C16.7126627,0 16.377068,0.124305936 16.1210622,0.372878718 C15.6087687,0.869594292 15.6087687,1.67582383 16.1210622,2.17269576 L28.3077578,14.0000147 L28.307637,14.0000147 Z" id="Fill-1" fill="#9DC6FC"></path>
                    <path d="M42.8339527,14.0000147 L30.647378,25.8274508 C30.1350845,26.3241664 30.1350845,27.1303959 30.647378,27.6271115 C31.1591881,28.1242962 31.9899179,28.1242962 32.501728,27.6271115 L45.6157799,14.8998255 C46.1280734,14.4031099 46.1280734,13.5968803 45.6157799,13.1001648 L32.501728,0.372878718 C32.2457626,0.124305936 31.9101679,0 31.5745732,0 C31.2389784,0 30.9033837,0.124305936 30.647378,0.372878718 C30.1350845,0.869594292 30.1350845,1.67582383 30.647378,2.17269576 L42.8340736,14.0000147 L42.8339527,14.0000147 Z" id="Fill-1" fill="#82B5F6"></path>
                    <path d="M12.5707949,14.0000147 L0.384220091,25.8274508 C-0.128073364,26.3241664 -0.128073364,27.1303959 0.384220091,27.6271115 C0.896030211,28.1242962 1.72676002,28.1242962 2.23857014,27.6271115 L15.352622,14.8998255 C15.8649155,14.4031099 15.8649155,13.5968803 15.352622,13.1001648 L2.23857014,0.372878718 C1.98260467,0.124305936 1.64700996,0 1.31141526,0 C0.975820551,0 0.640225845,0.124305936 0.384220091,0.372878718 C-0.128073364,0.869594292 -0.128073364,1.67582383 0.384220091,2.17269576 L12.5709157,14.0000147 L12.5707949,14.0000147 Z" id="Fill-1" fill="#C4DAF8"></path>
                </g>
            </g>
        </g>
    </g>
</svg>