<?xml version="1.0" encoding="UTF-8"?>
<svg width="64px" height="64px" viewBox="0 0 64 64" version="1.1" xmlns="http://www.w3.org/2000/svg" xmlns:xlink="http://www.w3.org/1999/xlink">
    <!-- Generator: Sketch 52.2 (67145) - http://www.bohemiancoding.com/sketch -->
    <title>成功</title>
    <desc>Created with Sketch.</desc>
    <g id="Page-1" stroke="none" stroke-width="1" fill="none" fill-rule="evenodd">
        <g id="忘记密码-成功/失败弹框" transform="translate(-207.000000, -429.000000)" fill="#0BC161">
            <g id="分组-2" transform="translate(119.000000, 369.000000)">
                <path d="M120.000586,60 C137.673395,60 152,74.326917 152,92.0002734 C152,109.672458 137.673395,123.999063 120.000586,123.999063 C102.326605,123.999063 88,109.672458 88,92.0002734 C88,74.326917 102.326605,60 120.000586,60 Z M120.000298,120.998884 C136.016693,120.998884 149.000298,108.015204 149,91.9997023 C149,75.9839771 136.016693,63 120.000298,63 C103.983679,63 91,75.9842748 91,91.9997023 C91,108.015204 103.983679,120.998884 120.000298,120.998884 Z M131.066757,84.4393398 C131.652543,83.8535534 132.602291,83.8535534 133.188077,84.4393398 C133.773864,85.0251263 133.773864,85.9748737 133.188077,86.5606602 L120.106602,99.6421356 C118.544505,101.204233 116.011845,101.204233 114.449747,99.6421356 L108.43934,93.631728 C107.853553,93.0459415 107.853553,92.0961941 108.43934,91.5104076 C109.025126,90.9246212 109.974874,90.9246212 110.56066,91.5104076 L115.863961,96.8137085 C116.64501,97.5947571 117.91134,97.5947571 118.692388,96.8137085 L131.066757,84.4393398 Z" id="成功" transform="translate(120.000000, 91.999531) rotate(-360.000000) translate(-120.000000, -91.999531) "></path>
            </g>
        </g>
    </g>
</svg>