<?xml version="1.0" encoding="UTF-8"?>
<svg width="140px" height="37px" viewBox="0 0 140 37" version="1.1" xmlns="http://www.w3.org/2000/svg" xmlns:xlink="http://www.w3.org/1999/xlink">
    <!-- Generator: Sketch 52.3 (67297) - http://www.bohemiancoding.com/sketch -->
    <title>Fill 29</title>
    <desc>Created with Sketch.</desc>
    <defs>
        <linearGradient x1="-0.000619348445%" y1="50.0015517%" x2="95.6121133%" y2="50.0015517%" id="linearGradient-1">
            <stop stop-color="#3FCFFA" offset="0%"></stop>
            <stop stop-color="#1893BD" offset="100%"></stop>
        </linearGradient>
    </defs>
    <g id="Page-1" stroke="none" stroke-width="1" fill="none" fill-rule="evenodd">
        <g id="首页展示" transform="translate(-360.000000, -17.000000)">
            <g id="分组" transform="translate(360.000000, 17.000000)">
                <path d="M68.069876,16.7650793 L63.9952863,18.5333156 L60.0762483,16.8639793 C59.5510649,16.6406567 59.165721,16.396597 58.9190381,16.1325978 C58.63386,15.8303147 58.4877357,15.3888538 58.4818436,14.8094115 L58.4716306,13.1600146 L69.5185492,13.1600146 L69.5185492,14.5824998 C69.5185492,15.6161643 69.0353963,16.3435579 68.069876,16.7650793 Z M70.4227916,17.3182015 C71.0194658,16.7060583 71.3172137,15.7908345 71.3172137,14.57253 L71.3172137,13.1600146 L73,13.1600146 L73,11.3032468 L71.3172137,11.3032468 L71.3172137,10 L69.5185492,10 L69.5185492,11.3032468 L58.4716306,11.3032468 L58.4716306,10 L56.6729661,10 L56.6729661,11.3032468 L55.087596,11.3032468 L55.0777758,13.1600146 L56.6729661,13.1600146 L56.6926065,15.1256522 C56.6984986,15.9946163 56.9447888,16.6733575 57.4310841,17.1598817 C57.9692301,17.7066232 58.6079347,18.1381144 59.347198,18.4535575 L61.7488216,19.4708717 C60.6407123,19.8002725 59.4505063,20.0144229 58.1801676,20.1137217 C57.2468575,20.1859028 56.1866707,20.2217939 55,20.2217939 L55,22 C58.1573848,21.9469609 60.4914455,21.6674089 62.0017895,21.1605463 C62.4814071,21.0022266 63.1397521,20.7553754 63.9760388,20.4195939 C64.7341568,20.7358346 65.3402584,20.9623475 65.7943436,21.1011266 C66.7213687,21.3910472 67.8785789,21.6175601 69.2655814,21.7826593 C70.4648219,21.9274202 71.6903806,22 72.9414717,22 L73,20.2126217 C72.4288582,20.2186036 72.0435143,20.2217939 71.8427898,20.2217939 C70.7213251,20.2217939 69.7746596,20.1695524 69.0031861,20.0638729 C68.2702078,19.9653717 67.3502531,19.7675717 66.2409654,19.4708717 C68.1798621,18.6290253 69.2494763,18.1544648 69.4502008,18.0495829 C69.7876222,17.8709249 70.112081,17.6280615 70.4227916,17.3182015 Z" id="Fill-1" fill="#414242"></path>
                <path d="M71.2454291,8.34437086 C71.2454291,8.1986755 71.1773248,8.05886681 71.0407226,7.92531273 C70.7942875,7.67586461 70.4758114,7.55150846 70.085688,7.55150846 L58.3910419,7.5334805 C57.8261307,7.5334805 57.424591,7.59713024 57.1879976,7.72479765 C56.9502231,7.85209713 56.8285802,8.07395143 56.8222815,8.38962472 L56.8029919,9 L55,9 L55.0192897,8.10743194 C55.0326743,7.36019132 55.2983991,6.78329654 55.8184323,6.37601177 C56.2538273,6.03605592 56.8549558,5.86571008 57.6214242,5.86571008 L63.137477,5.85651214 L63.137477,5 L64.9404689,5 L64.9404689,5.85651214 L70.183711,5.85651214 C71.1056775,5.85651214 71.797743,6.05114054 72.2587263,6.43966152 C72.7531712,6.86497425 73,7.36019132 73,7.92531273 L73,9 L71.2359811,9 L71.2454291,8.34437086" id="Fill-2" fill="#414242"></path>
                <path d="M95.4518604,19.9594317 C95.0857101,20.274021 94.6952367,20.4319245 94.2795714,20.4319245 L90.9464312,20.4319245 L90.9464312,18.5719914 L93.0859997,18.5719914 C93.4803822,18.5719914 93.7314319,18.5180038 93.8387143,18.4108405 C93.9533806,18.3101719 94.0102794,18.0524117 94.0102794,17.6371538 L94.0102794,7.95551576 C94.0102794,7.42619389 93.9464312,7.10470392 93.8169972,6.990234 C93.7166643,6.90336676 93.4729984,6.85993314 93.0859997,6.85993314 L90.0434342,6.85993314 C89.563052,6.85993314 89.2616186,6.9135148 89.1400029,7.02067813 C89.0392356,7.11444604 88.9892862,7.42619389 88.9892862,7.95551576 L88.9892862,22 L87,22 L87,7.18142311 C87,6.49095033 87.0820906,6.02901146 87.2475749,5.79398281 C87.635008,5.26425501 88.1292891,5 88.7312871,5 L94.0102794,5 C95.3367598,5 96,5.66327603 96,6.990234 L96,18.3101719 C96,19.1013133 95.817142,19.6509312 95.4518604,19.9594317" id="Fill-3" fill="#414242"></path>
                <path d="M79.281427,7.12897636 C79.0576161,7.33177373 78.9450736,7.71756405 78.9450736,8.28674341 L78.9450736,12.0139374 L85.6109853,12.0139374 L85.6109853,13.8288154 L78.9450736,13.8288154 L78.9450736,17.7037505 C78.9450736,18.3117465 79.0610136,18.7078351 79.2924689,18.8912242 C79.5447339,19.0868919 79.9541336,19.1851219 80.5219422,19.1851219 L85.7371178,19.1851219 L85.7371178,21 L79.8917044,21 C79.1697339,21 78.6261325,20.8886991 78.2621744,20.6664934 C77.4212911,20.1495977 77,19.35544 77,18.2824359 L77,7.75677683 C77,7.04421339 77.1193375,6.51701943 77.3580125,6.17757148 C77.6731314,5.73276396 78.0341166,5.41866568 78.4409683,5.23567273 C78.7913364,5.07882164 79.2750566,5 79.8917044,5 L86,5 L86,6.81487808 L80.5219422,6.81487808 C79.9265289,6.81487808 79.5128822,6.91944548 79.281427,7.12897636" id="Fill-4" fill="#414242"></path>
                <path d="M103.918467,11.9079657 L102.34508,18.3943722 C102.292976,18.6105998 102.267319,18.8132868 102.267319,19.0024331 C102.267319,19.3934201 102.41021,19.676928 102.696783,19.8512641 C102.866516,19.9562044 103.035854,20.0082513 103.205588,20.0082513 L114.38429,20.0082513 C114.899015,20.0082513 115.217956,19.984132 115.3419,19.9354702 C115.680577,19.7949857 115.849916,19.508939 115.849916,19.0760605 C115.849916,18.9080715 115.833732,18.7510843 115.801364,18.6042526 L114.814149,14.2132656 L116.680818,14.2132656 L117.559878,18.3105892 C117.677507,18.8551783 117.735927,19.3413731 117.735927,19.7679044 C117.735927,20.4868296 117.416592,21.0737332 116.778316,21.5281921 C116.335037,21.8430128 115.657683,22 114.745861,22 L103.117168,22 C102.381395,22 101.758909,21.8074685 101.250894,21.4232519 C100.63867,20.9620226 100.332361,20.3158786 100.332361,19.4843965 C100.332361,19.1983497 100.381307,18.8522162 100.478805,18.4472654 L102.052192,11.9079657 L100,11.9079657 L100,10 L118,10 L118,11.9079657 L103.918467,11.9079657" id="Fill-5" fill="#3ECEF9"></path>
                <polygon id="Fill-6" fill="#3ECEF9" points="101 7 117 7 117 5 101 5"></polygon>
                <path d="M140,7.33007417 L137.440049,7.33007417 L137.440049,8.8246797 L135.617934,8.8246797 L135.617934,7.33007417 L133.639104,7.33007417 C133.376188,7.89211059 133.054404,8.29028995 132.673753,8.52393796 C132.286737,8.7633176 131.728289,8.92178018 131,9 L131,7.43830074 C131.328546,7.38840189 131.544526,7.31018206 131.649534,7.20465273 C131.840058,7.00404585 131.974897,6.68442347 132.053653,6.24443695 L132.289919,5 L134.170902,5 L134.022937,5.84356035 L140,5.84356035 L140,7.33007417" id="Fill-7" fill="#3ECEF9"></path>
                <path d="M128.437218,8.8246797 L126.613486,8.8246797 L126.613486,7.33007417 L124.632068,7.33007417 C124.369259,7.88098449 124.043934,8.27646662 123.656092,8.51584626 C123.27502,8.76062036 122.723122,8.92178018 122,9 L122,7.43830074 C122.289089,7.40492245 122.496151,7.33007417 122.620786,7.21308159 C122.811521,7.03506406 122.943324,6.73162508 123.015397,6.30276467 L123.242368,5 L125.134988,5 L124.98686,5.84356035 L131,5.84356035 L131,7.33007417 L128.437218,7.33007417 L128.437218,8.8246797" id="Fill-8" fill="#3ECEF9"></path>
                <path d="M124.902883,12.7068978 L125.194824,12.1656664 C125.253055,12.0434171 125.347483,11.941913 125.477322,11.8622657 C125.620145,11.7703934 125.899495,11.7248277 126.31498,11.7248277 L135.723972,11.7248277 C136.080832,11.7248277 136.337756,11.7615026 136.493563,11.8348522 C136.58445,11.8778247 136.678878,11.9882196 136.776061,12.1656664 L137.077838,12.7068978 L124.902883,12.7068978 Z M139.464513,13.2755427 C139.263066,13.1958954 139.100964,13.0366007 138.97742,12.7987701 L138.090581,11.0917241 C137.889528,10.7060828 137.675097,10.434541 137.448469,10.2752464 C137.181709,10.0918723 136.606877,10 135.723972,10 L125.789329,10 C125.288859,10 124.902883,10.0733496 124.629828,10.2204194 C124.344182,10.3793436 124.104177,10.6512558 123.909025,11.0368971 L123.013137,12.7987701 C122.825067,13.1777432 122.487093,13.3737127 122,13.3855672 L122,15 C122.402501,14.976291 122.707819,14.945173 122.915954,14.9088686 C123.272815,14.8473735 123.603707,14.6765948 123.909025,14.3943098 L138.090581,14.3943098 C138.383309,14.63992 138.639839,14.7951397 138.860172,14.8625621 C139.100964,14.9422094 139.480644,14.9877751 140,15 L140,13.3855672 C139.759601,13.35519 139.580974,13.3181448 139.464513,13.2755427 Z" id="Fill-9" fill="#3ECEF9"></path>
                <path d="M123,16 L125.384548,16 L125.384548,17.0606771 C125.384548,17.2677952 125.436409,17.4118907 125.541718,17.4926576 C125.620039,17.5486437 125.772447,17.5911687 126,17.6217622 L126,19 C125.091903,18.9498266 124.406068,18.7934938 123.943023,18.5303896 C123.314341,18.1724454 123,17.7352641 123,17.2200693 L123,16" id="Fill-10" fill="#3ECEF9"></path>
                <path d="M129,16 L131.423179,16 L131.423179,17.037732 C131.423179,17.2656537 131.458635,17.4069957 131.528488,17.4626759 C131.597813,17.5183561 131.754983,17.566082 132,17.6067714 L132,19 C131.12683,18.9452376 130.466925,18.7956353 130.021873,18.5530288 C129.340272,18.1849888 129,17.7153783 129,17.1441974 L129,16" id="Fill-11" fill="#3ECEF9"></path>
                <path d="M138,16 L138,17.098919 C138,18.2657557 136.999824,18.8996533 135,19 L135,17.5988171 C135.218028,17.5685295 135.362498,17.5308994 135.432881,17.4847032 C135.528135,17.424434 135.576821,17.2959413 135.576821,17.098919 L135.576821,16 L138,16" id="Fill-12" fill="#3ECEF9"></path>
                <polygon id="Fill-13" fill="#3ECEF9" points="122 22 140 22 140 20 122 20"></polygon>
                <path d="M3.29025791,29.1244473 L26.7250466,14.6918078 C28.8176511,13.4033973 31.4070011,13.9663899 32.5073061,15.9500942 C33.6076111,17.9329844 32.8031297,20.5867435 30.710128,21.8747469 L7.27533939,36.3077935 C5.18233775,37.5970181 2.59378193,37.0332113 1.49268279,35.0503212 C0.392377809,33.0666169 1.19685918,30.4136719 3.29025791,29.1244473" id="Fill-28" fill="#BBE4FA"></path>
                <path d="M41.1303106,8 L3.86928907,8 C1.74130017,8 0,6.20006207 0,4 C0,1.79993793 1.74130017,0 3.86928907,0 L41.1303106,0 C43.2586998,0 45,1.79993793 45,4 C45,6.20006207 43.2586998,8 41.1303106,8" id="Fill-29" fill="#8CD4FA"></path>
                <path d="M41.1145845,37 L3.88501353,37 C1.74837667,37 0,35.1996483 0,33 C0,30.8003517 1.74837667,29 3.88501353,29 L41.1145845,29 C43.2516233,29 45,30.8003517 45,33 C45,35.1996483 43.2516233,37 41.1145845,37" id="Fill-31" fill="#1893BD"></path>
                <path d="M44,18 C44,20.2093091 42.2093091,22 40,22 C37.7906909,22 36,20.2093091 36,18 C36,15.7910796 37.7906909,14 40,14 C42.2093091,14 44,15.7910796 44,18" id="Fill-33" fill="#3ECEF9"></path>
                <path d="M29.0484207,14 L4.23690078,14 C2.52865106,14.9777594 1.07342995,16.3556429 0,18.0115858 C1.06525455,19.6547016 2.50739502,21.0238957 4.19970271,22 L29.0484207,22 C31.2218506,22 33,20.2000621 33,18 C33,15.8003517 31.2218506,14 29.0484207,14" id="Fill-35" fill="url(#linearGradient-1)"></path>
                <polygon id="Fill-14" fill="#414242" points="56 36 57 36 57 29 56 29"></polygon>
                <polygon id="Fill-15" fill="#414242" points="59 35 62 35 62 34 59 34"></polygon>
                <polygon id="Fill-16" fill="#414242" points="65.9779679 36 65.0271194 36 65.0271194 33 63 29 64.0938308 29 65.5016929 32.024166 66.8943621 29 68 29 65.9779679 33"></polygon>
                <polygon id="Fill-17" fill="#414242" points="69 36 70 36 70 29 69 29"></polygon>
                <path d="M75.5406655,36 L72.0419615,30.3311893 C72.052049,30.546966 72.061296,30.7601942 72.069282,30.9700243 C72.0776883,31.1798544 72.0814711,31.3930825 72.0814711,31.6088592 L72.0814711,36 L71,36 L71,29 L72.425289,29 L75.9630823,34.7083131 C75.9500525,34.5256675 75.938704,34.3256068 75.9286165,34.1068568 C75.9189492,33.8885316 75.9143257,33.6290049 75.9143257,33.3270024 L75.9143257,29 L77,29 L77,36 L75.5406655,36" id="Fill-18" fill="#414242"></path>
                <path d="M85,29.9369656 C84.3933613,29.9369656 83.8394735,30.1561413 83.5112018,30.5957309 C83.1824723,31.0349077 83.0185654,31.6598266 83.0185654,32.4709004 C83.0185654,33.27537 83.1865929,33.9097824 83.5212743,34.3724866 C83.8568714,34.8360163 84.4148798,35.0408981 85,35.0408981 C85.5851202,35.0408981 85.9365128,34.9577805 86.2203739,34.7377794 C86.504235,34.5169527 86.7134681,34.2024294 86.8489889,33.7937968 L88,34.1991273 C87.5000382,35.3994339 86.5651278,36 85.195269,36 C84.1893934,36 83.4046547,35.6871278 82.8428844,35.0634471 C82.2811141,34.4385282 82,33.5742084 82,32.4709004 C82,31.3733711 82.2760778,30.5206085 82.829607,29.9117873 C83.3826784,29.3042043 84.1678749,29 85.1847386,29 C85.8875238,29 86.5381023,29.1809494 86.926364,29.4152367 C87.3146257,29.6495241 87.7303319,30.1297246 87.9624571,30.7286397 L86.8169401,31.0955835 C86.6951545,30.7158441 86.4978253,30.426912 86.2226631,30.2312636 C85.9484166,30.034377 85.3996948,29.9369656 85,29.9369656 Z" id="Fill-19" fill="#414242"></path>
                <polygon id="Fill-20" fill="#414242" points="89 29 90.0025605 29 90.0025605 35.0408981 93 35.0408981 93 36 89 36"></polygon>
                <path d="M98.5993634,34.3552409 C98.2374606,34.7856166 97.7041973,35 96.9995737,35 C96.3120009,35 95.7834266,34.77717 95.4129984,34.3315099 C95.0421439,33.8870566 94.8571429,33.2656263 94.8571429,32.4692302 C94.8571429,31.6724318 95.0395862,31.0618615 95.4053255,30.6371169 C95.7710648,30.2119701 96.3056069,30 97.0098042,30 C97.7007872,30 98.2289352,30.213579 98.5946745,30.6419435 C98.9595612,31.0699059 99.1428571,31.6788673 99.1428571,32.4692302 C99.1428571,33.2969994 98.9612663,33.9256697 98.5993634,34.3552409 Z M99.2153642,29.9175659 C98.6926527,29.3054425 97.9557774,29 97.0043591,29 C96.0529408,29 95.3145492,29.3025532 94.7888054,29.9076596 C94.2626824,30.5123533 94,31.3671797 94,32.4709004 C94,33.5849401 94.2619243,34.4504983 94.7842567,35.0704641 C95.3073473,35.6896043 96.0446017,36 96.9952619,36 C97.6157685,36 98.1513677,35.8592488 98.6020595,35.5777463 C99.0519932,35.2954184 99.3980668,34.8867858 99.6387643,34.3514358 C99.8794617,33.8152603 100,33.1882776 100,32.4709004 C100,31.3799752 99.7388338,30.528451 99.2153642,29.9175659 Z" id="Fill-21" fill="#414242"></path>
                <path d="M103.944348,36 C102.985881,36 102.255426,35.7742611 101.752985,35.3236209 C101.250544,34.8729807 101,34.2167046 101,33.3547924 L101,29 L102.00552,29 L102.00552,33.2664234 C102.00552,33.8347493 102.155576,34.2749192 102.45614,34.5865143 C102.756703,34.8981094 103.447315,35.0543257 103.981299,35.0543257 C104.546827,35.0543257 105.2479,34.8926648 105.54621,34.5693431 C105.84452,34.2464401 105.994126,33.7924494 105.994126,33.2073711 L105.994126,29 L107,29 L107,33.276056 C107,34.1547206 106.737289,34.8277492 106.212317,35.296817 C105.687345,35.7654661 104.931205,36 103.944348,36 Z" id="Fill-22" fill="#414242"></path>
                <path d="M112.257645,34.3301295 C111.895416,34.777267 111.202676,35 110.552877,35 L109.2,35 L109.2,30 L110.409881,30 C111.878151,30 112.8,30.8144588 112.8,32.4437944 C112.8,33.2549102 112.619083,33.8842457 112.257645,34.3301295 Z M110.385163,29 L108,29 L108,36 L110.617209,36 C111.296528,36 111.892172,35.8572816 112.404572,35.5726942 C112.916972,35.2872573 113.311624,34.876517 113.586802,34.3408981 C113.862411,33.8040049 114,33.1711165 114,32.4426578 C114,31.3200243 113.691611,30.4658374 113.075264,29.8792476 C112.458055,29.2935073 111.561786,29 110.385163,29 Z" id="Fill-23" fill="#414242"></path>
                <path d="M120.902267,31.5735598 C121.06673,31.666018 121.382772,31.7820037 121.851683,31.9206911 C122.400034,32.0845569 122.791652,32.2290229 123.025678,32.352851 C123.260134,32.4762663 123.446067,32.6141282 123.583047,32.7647857 C123.720457,32.9166814 123.823944,33.0921045 123.894796,33.2914677 C123.964789,33.4912436 124,33.7228021 124,33.9869686 C124,34.6370659 123.784868,35.1344419 123.355033,35.4807477 C122.924768,35.8266407 122.302989,36 121.489694,36 C120.773875,36 120.210495,35.8501681 119.800842,35.5509169 C119.391189,35.2520785 119.124098,34.7996934 119,34.1941742 L120.13449,34.0063683 C120.298523,34.7431452 120.77044,35.1117401 121.55024,35.1117401 C122.400034,35.1117401 122.825146,34.7584174 122.825146,34.0538357 C122.825146,33.8515832 122.783494,33.6856536 122.69976,33.5564597 C122.616025,33.428504 122.500515,33.3203609 122.353229,33.2332685 C122.205943,33.1470016 122.032892,33.073943 121.833648,33.0140928 C121.634833,32.9542426 121.421419,32.8923286 121.193834,32.827938 C120.645053,32.6768677 120.247424,32.5191933 120.001374,32.3553276 C119.755325,32.191049 119.566386,31.9846689 119.434129,31.7370128 C119.301872,31.4889439 119.235744,31.1801993 119.235744,30.8107789 C119.235744,30.2407571 119.43327,29.7966272 119.828324,29.4775635 C120.223377,29.1597382 120.772157,29 121.474665,29 C122.144538,29 122.667125,29.1283684 123.043284,29.383867 C123.419873,29.6393655 123.680522,30.0409812 123.823944,30.5883012 L122.674425,30.7860133 C122.524133,30.165222 122.120491,29.8548263 121.465218,29.8548263 C121.127276,29.8548263 120.866627,29.9344891 120.684129,30.0934017 C120.502061,30.2527272 120.410598,30.4739666 120.410598,30.7567074 C120.410598,30.953594 120.451821,31.1145704 120.533408,31.2421133 C120.615424,31.3696562 120.738664,31.4798632 120.902267,31.5735598" id="Fill-24" fill="#414242"></path>
                <polygon id="Fill-25" fill="#414242" points="125 36 126 36 126 29 125 29"></polygon>
                <path d="M130.195373,32.4077481 L133,32.4077481 L133,34.8892623 C132.689374,35.2269002 132.287489,35.4968453 131.793488,35.6978595 C131.298629,35.898461 130.774636,36 130.220651,36 C129.198372,36 128.40617,35.6896043 127.844045,35.0704641 C127.280634,34.4504983 127,33.5849401 127,32.4709004 C127,31.351082 127.275493,30.4925408 127.826478,29.8956896 C128.377464,29.2984256 129.163239,29 130.185518,29 C130.889889,29 131.469152,29.1337343 131.922879,29.4032667 C132.377464,29.6715608 132.709512,30.0810189 132.91988,30.631641 L131.798201,30.9597854 C131.537704,30.2779055 130.994859,29.9369656 130.170523,29.9369656 C129.535561,29.9369656 129.053985,30.1544902 128.725364,30.5907778 C128.396315,31.0266525 128.231791,31.6532225 128.231791,32.4709004 C128.231791,33.2881656 128.407883,33.9258801 128.760497,34.3819801 C129.112682,34.8393184 129.602399,35.0679875 130.230506,35.0679875 C130.88132,35.0679875 131.556903,34.8682116 131.990921,34.4690725 L131.990921,33.2720679 L130.195373,33.2720679 L130.195373,32.4077481 Z" id="Fill-26" fill="#414242"></path>
                <path d="M138.540245,36 L135.041541,30.3311893 C135.051629,30.546966 135.060876,30.7601942 135.068862,30.9700243 C135.077268,31.1798544 135.081051,31.3930825 135.081051,31.6088592 L135.081051,36 L134,36 L134,29 L135.425289,29 L138.963082,34.7083131 C138.949632,34.5256675 138.937863,34.3256068 138.928616,34.1068568 C138.918529,33.8885316 138.913905,33.6290049 138.913905,33.3270024 L138.913905,29 L140,29 L140,36 L138.540245,36" id="Fill-27" fill="#414242"></path>
            </g>
        </g>
    </g>
</svg>