<?xml version="1.0" encoding="UTF-8"?>
<svg width="80px" height="80px" viewBox="0 0 80 80" version="1.1" xmlns="http://www.w3.org/2000/svg" xmlns:xlink="http://www.w3.org/1999/xlink">
    <!-- Generator: Sketch 60 (88103) - https://sketch.com -->
    <title>蒙版</title>
    <desc>Created with Sketch.</desc>
    <defs>
        <rect id="path-1" x="0" y="0" width="80" height="80" rx="4"></rect>
    </defs>
    <g id="H5审批" stroke="none" stroke-width="1" fill="none" fill-rule="evenodd">
        <g id="我的审批-详情页" transform="translate(-30.000000, -160.000000)">
            <g id="编组" transform="translate(30.000000, 160.000000)">
                <g id="路径">
                    <mask id="mask-2" fill="white">
                        <use xlink:href="#path-1"></use>
                    </mask>
                    <use id="蒙版" fill="#9AC3EA" xlink:href="#path-1"></use>
                    <path d="M63.1055312,58.6556722 C62.7965968,58.3195814 62.4550795,58.0121277 62.0855367,57.7374142 L61.182113,57.0695903 C60.969093,56.9092919 60.7336796,56.7781719 60.4826883,56.6800262 L60.3369747,56.6522003 L55.3535732,53.5356884 C54.6049143,53.0716985 53.8262155,52.6534706 53.0221574,52.2835185 L46.290194,49.1670065 L46.290194,46.1061467 C48.153306,45.0437581 49.7066568,43.5510206 50.8073122,41.7652908 C51.8273057,39.9035091 52.4138346,37.8532339 52.5267315,35.754875 L52.5267315,33.4174911 C52.6016466,32.0222351 52.5235075,30.623324 52.2935899,29.2435912 L52.089591,27.9079433 C52.0474289,24.4456577 50.6188313,21.1301153 48.0970412,18.6418856 C45.5584036,16.0394169 41.8962391,14.7127264 38.1885237,15.0523317 C35.4780881,15.3585913 33.0103009,16.692151 31.3399895,18.7531895 C29.152995,21.3268816 27.7873002,24.4468012 27.4057252,27.7409873 C27.4057252,27.7409873 27.1434409,32.0261911 27.1725835,32.5548851 L27.4057252,35.560093 C27.6433841,37.6344066 28.213462,39.6615338 29.0960017,41.5705088 C30.1313149,43.4128939 31.7126976,44.922828 33.6422627,45.9113646 L33.6422627,48.9722245 L26.9394419,52.1443884 C26.4343018,52.3855471 25.9388759,52.6545317 25.4531643,52.9513424 L19.5371965,56.6522003 L19.0417706,56.9304602 C18.6419114,57.1713681 18.2619469,57.4411405 17.9052053,57.7374142 C17.3912486,58.1339241 16.9135306,58.5714405 16.4772131,59.0452362 C16.0269541,59.5442303 15.6450312,60.0959063 15.3406479,60.6869701 C14.8758786,61.6211535 14.8866968,62.9870617 15.3731025,64.7846946 L64.0963829,65 C64.7030791,63.910473 65.0042848,63.0571424 65,62.4400081 C65.0008131,61.9468261 64.9120651,61.4572273 64.7375223,60.9930561 C64.5590713,60.558553 64.324085,60.1472092 64.0380975,59.7687121 C63.7508505,59.3802137 63.4394348,59.0085317 63.1055312,58.6556722 Z" fill="#FFFFFF" fill-rule="nonzero" mask="url(#mask-2)"></path>
                </g>
            </g>
        </g>
    </g>
</svg>