<?xml version="1.0" standalone="no"?><!DOCTYPE svg PUBLIC "-//W3C//DTD SVG 1.1//EN" "http://www.w3.org/Graphics/SVG/1.1/DTD/svg11.dtd"><svg t="1594092445339" class="icon" viewBox="0 0 1024 1024" version="1.1" xmlns="http://www.w3.org/2000/svg" p-id="4369" xmlns:xlink="http://www.w3.org/1999/xlink" width="200" height="200"><defs><style type="text/css"></style></defs><path d="M1024 512c0 282.77-229.23 512-512 512S0 794.77 0 512 229.23 0 512 0s512 229.23 512 512zM517.22 787.8c56.92 0 113.94-19.1 160.55-53.77 48.1-35.78 82.9-85.36 100.64-143.39 21.56-70.51 15.13-144.99-18.11-209.71-33.3-64.87-89.53-112.18-158.32-133.21-25.01-7.65-50.86-11.52-76.83-11.52-56.92 0-113.94 19.1-160.55 53.77-48.1 35.78-82.9 85.36-100.64 143.39-5.52 18.06-9.22 36.48-11.07 55.04l-20.68-20.68c-5.97-5.97-13.87-9.26-22.25-9.26-8.18 0-15.85 3.16-21.6 8.9-5.86 5.86-9.02 13.69-8.9 22.05 0.12 8.21 3.41 15.95 9.26 21.8l74.18 74.18c5.97 5.97 13.87 9.26 22.25 9.26 8.18 0 15.85-3.16 21.59-8.9a29.84 29.84 0 0 0 5.09-6.76l66.37-66.37c11.99-11.99 11.83-31.66-0.36-43.84-5.97-5.97-13.87-9.26-22.25-9.26-8.18 0-15.85 3.16-21.6 8.91l-17.97 17.96c1.6-11.7 4.16-23.32 7.66-34.77 27.42-89.69 110.11-152.32 201.1-152.32 19.84 0 39.6 2.96 58.72 8.81 108.89 33.29 169.52 151.84 135.14 264.27-27.42 89.69-110.11 152.32-201.1 152.32-19.84 0-39.6-2.96-58.72-8.81-32.28-9.87-60.67-27.05-84.36-51.06-5.87-5.95-13.7-9.22-22.04-9.22-8.44 0-16.37 3.34-22.33 9.41-12.09 12.31-12.12 32.25-0.08 44.46 30.57 30.98 68.72 54.08 110.34 66.81 25.01 7.65 50.85 11.52 76.82 11.52 0.04-0.01 0.05-0.01 0.05-0.01z" p-id="4370"></path></svg>