<?xml version="1.0" standalone="no"?><!DOCTYPE svg PUBLIC "-//W3C//DTD SVG 1.1//EN" "http://www.w3.org/Graphics/SVG/1.1/DTD/svg11.dtd"><svg t="1594092470685" class="icon" viewBox="0 0 1024 1024" version="1.1" xmlns="http://www.w3.org/2000/svg" p-id="6245" xmlns:xlink="http://www.w3.org/1999/xlink" width="200" height="200"><defs><style type="text/css"></style></defs><path d="M665.6 629.76L394.24 358.4H486.4c15.36 0 25.6-10.24 25.6-25.6s-10.24-25.6-25.6-25.6h-153.6c-7.68 0-12.8 2.56-17.92 7.68-5.12 5.12-7.68 10.24-7.68 17.92v153.6c0 15.36 10.24 25.6 25.6 25.6s25.6-10.24 25.6-25.6v-92.16L629.76 665.6H537.6c-15.36 0-25.6 10.24-25.6 25.6s10.24 25.6 25.6 25.6h153.6c7.68 0 12.8-2.56 17.92-7.68 5.12-5.12 7.68-10.24 7.68-17.92v-153.6c0-15.36-10.24-25.6-25.6-25.6s-25.6 10.24-25.6 25.6v92.16zM512 0c281.6 0 512 230.4 512 512s-230.4 512-512 512S0 793.6 0 512 230.4 0 512 0z" fill="" p-id="6246"></path></svg>