<?xml version="1.0" encoding="UTF-8"?>
<svg width="100px" height="100px" viewBox="0 0 100 100" version="1.1" xmlns="http://www.w3.org/2000/svg" xmlns:xlink="http://www.w3.org/1999/xlink">
    <!-- Generator: Sketch 52.3 (67297) - http://www.bohemiancoding.com/sketch -->
    <title>成功 icon</title>
    <desc>Created with Sketch.</desc>
    <g id="Page-1" stroke="none" stroke-width="1" fill="none" fill-rule="evenodd">
        <g id="企业实名认证——第四步-验证成功" transform="translate(-325.000000, -416.000000)" fill="#13CE66">
            <g id="分组-2" transform="translate(325.000000, 416.000000)">
                <path d="M50,0 C43.1089385,0 36.6186154,1.30207692 30.5288462,3.90624615 C24.4390769,6.51043077 19.1306308,10.0760923 14.6033662,14.6033692 C10.0760985,19.1306308 6.51042923,24.4390769 3.90624923,30.5288462 C1.30207031,36.6186154 0,43.1089385 0,50 C0,56.8910615 1.30207031,63.3813846 3.90624923,69.4711538 C6.51042923,75.5609231 10.0760985,80.8693692 14.6033662,85.3966338 C19.1306308,89.9239015 24.4390769,93.4895708 30.5288462,96.0937508 C36.6186154,98.6979297 43.1089385,100 50,100 C56.8910615,100 63.3813846,98.6979297 69.4711538,96.0937508 C75.5609231,93.4895708 80.8693692,89.9239015 85.3966308,85.3966338 C89.9239077,80.8693692 93.4895692,75.5609231 96.0937538,69.4711538 C98.6979231,63.3813846 100,56.8910615 100,50 C100,43.1089385 98.6979231,36.6186154 96.0937538,30.5288462 C93.4895692,24.4390769 89.9239077,19.1306308 85.3966308,14.6033692 C80.8693692,10.0760923 75.5609231,6.51043077 69.4711538,3.90624615 C63.3813846,1.30207692 56.8910615,0 50,0 L50,0 Z M77.8846154,38.9423077 L41.4663385,75.3605692 C40.9855692,75.8413538 40.4246769,76.0817385 39.7836615,76.0817385 C39.1426308,76.0817385 38.5817385,75.8413538 38.1009538,75.3605692 L37.3798154,74.6394308 L17.3076923,54.4471231 C16.8269231,53.9663385 16.5865385,53.4054462 16.5865385,52.7644154 C16.5865385,52.1234 16.8269231,51.5625077 17.3076923,51.0817385 L22.2355692,46.1538462 C22.7163538,45.6730769 23.2772462,45.4326923 23.9182769,45.4326923 C24.5592923,45.4326923 25.1201846,45.6730769 25.6009538,46.1538462 L39.7836615,60.4567231 L69.5913538,30.6490308 C70.0721231,30.1682615 70.6330154,29.9278923 71.2740308,29.9278923 C71.9150615,29.9278923 72.4759538,30.1682615 72.9567385,30.6490308 L77.8846154,35.5769231 C78.3653846,36.0576923 78.6057692,36.6185846 78.6057692,37.2596154 C78.6057692,37.9006462 78.3653846,38.4615385 77.8846154,38.9423077 L77.8846154,38.9423077 Z" id="成功-icon"></path>
            </g>
        </g>
    </g>
</svg>