<?xml version="1.0" encoding="UTF-8"?>
<svg width="368px" height="293px" viewBox="0 0 368 293" version="1.1" xmlns="http://www.w3.org/2000/svg" xmlns:xlink="http://www.w3.org/1999/xlink">
    <!-- Generator: Sketch 60 (88103) - https://sketch.com -->
    <title>椭圆_7</title>
    <desc>Created with Sketch.</desc>
    <g id="印章之家H5" stroke="none" stroke-width="1" fill="none" fill-rule="evenodd">
        <g id="邀请注册2" transform="translate(-324.000000, -479.000000)">
            <g id="编组" transform="translate(324.000000, 479.000000)">
                <path d="M349.83,13.639 L351.02,12.2 C347.26,12.163 345.04,11.858 342.96,10.3 C349.82,9.006 356.04,5.108 363.08,0 C359.36,7.835 357.12,14.606 356.88,21.739 C354.93,19.667 354.23,17.829 353.34,14.015 L352.11,15.515 L349.83,13.639 Z" id="形状_4" fill="#FFFFFF"></path>
                <path d="M177.5,73.005 C274.427774,73.005 353,121.805184 353,182.005 C353,242.204816 274.427774,291.005 177.5,291.005 C80.5722262,291.005 2,242.203638 2,182.005 C2,121.806362 80.5722262,73.005 177.5,73.005 Z" id="椭圆_7" stroke="#FFFFFF" stroke-width="3" stroke-dasharray="12"></path>
                <path d="M289,91.005 C289,91.005 305.24,44.576 349,48.005 C370.03,49.653 364.98,72.566 350,70.005 C335.02,67.444 322.96,34.631 359,4.005" id="形状_3" stroke="#FFFFFF" stroke-width="3" stroke-dasharray="12"></path>
            </g>
        </g>
    </g>
</svg>