<?xml version="1.0" encoding="UTF-8"?>
<svg width="44px" height="44px" viewBox="0 0 44 44" version="1.1" xmlns="http://www.w3.org/2000/svg" xmlns:xlink="http://www.w3.org/1999/xlink">
    <!-- Generator: Sketch 52.3 (67297) - http://www.bohemiancoding.com/sketch -->
    <title>横竖屏（已设置）</title>
    <desc>Created with Sketch.</desc>
    <g id="H5" stroke="none" stroke-width="1" fill="none" fill-rule="evenodd">
        <g id="（交互2）点触屏幕直接签署——手写签署" transform="translate(-662.000000, -42.000000)" fill="#006EFE">
            <path d="M686,84 L702.017442,84 C703.122011,84 704.017442,83.1045695 704.017442,82 L704.017442,68 C704.017442,66.8954305 703.122011,66 702.017442,66 L688,66 L688,64 L702,64 C704.209139,64 706,65.790861 706,68 L706,82 C706,84.209139 704.209139,86 702,86 L686,86 L666,86 C663.790861,86 662,84.209139 662,82 L662,46 C662,43.790861 663.790861,42 666,42 L682,42 C684.209139,42 686,43.790861 686,46 L686,84 Z M682,84 C683.104569,84 684,83.1045695 684,82 L684,45.9825581 C684,44.8779886 683.104569,43.9825581 682,43.9825581 L666,43.9825581 C664.895431,43.9825581 664,44.8779886 664,45.9825581 L664,82 C664,83.1045695 664.895431,84 666,84 L668,84 L668,68 C668,65.790861 669.790861,64 672,64 L682,64 L682,66 L672,66 C670.895431,66 670,66.8954305 670,68 L670,82 C670,83.1045695 670.895431,84 672,84 L682,84 Z M690.444877,44.2979286 C690.715967,43.9505942 691.204304,43.8999172 691.535982,44.1830562 C691.86766,44.4675538 691.916831,44.9788751 691.645676,45.3253944 L689.94616,47.5000215 C693.917666,47.1653903 696.517506,48.8281526 698.060427,50.4208095 C700.478567,52.918927 701.562602,56.5065319 701.574019,59.4453897 L703.733978,57.5950682 C704.064943,57.311114 704.552437,57.3620627 704.825083,57.7099406 C705.095978,58.0565277 705.046807,58.6591491 704.71513,58.9435788 L701.650499,61.7408205 C701.293081,62.0670538 700.753351,62.0905507 700.368934,61.7966129 L696.518284,58.8522787 C696.186801,58.567849 696.13737,58.0565277 696.408525,57.7099406 C696.680458,57.3620627 697.168731,57.3119292 697.499435,57.5950682 L700.007809,59.7444247 C700.071381,57.1646534 699.144721,53.8211269 696.971852,51.576734 C695.068581,49.610657 692.521674,48.7923527 689.550846,49.1728377 L691.645676,51.8543026 C691.916831,52.2008218 691.86766,52.7122111 691.535982,52.9966408 C691.392037,53.1195291 691.218705,53.1797844 691.046152,53.1797844 C690.82138,53.1797844 690.598683,53.0783625 690.445072,52.8817684 L687.516145,49.387078 C687.214681,49.0273816 687.20392,48.5064343 687.490272,48.1345949 L690.444877,44.2979286 Z" id="横竖屏（已设置）"></path>
        </g>
    </g>
</svg>