<?xml version="1.0" encoding="UTF-8"?>
<svg width="750px" height="1206px" viewBox="0 0 750 1206" version="1.1" xmlns="http://www.w3.org/2000/svg" xmlns:xlink="http://www.w3.org/1999/xlink">
    <!-- Generator: Sketch 59 (86127) - https://sketch.com -->
    <title>形状结合</title>
    <desc>Created with Sketch.</desc>
    <g id="页面-1" stroke="none" stroke-width="1" fill="none" fill-rule="evenodd">
        <g id="企业实名认证——第三步-" transform="translate(0.000000, -128.000000)">
            <g id="编组-4" transform="translate(0.000000, 128.000000)">
                <path d="M750,0 L750,1206 L0,1206 L0,0 L750,0 Z M374.998422,240 C164.817825,240 197.395208,480.921912 197.395208,480.921912 C183.734203,483.035448 175.327011,493.602343 180.581604,537.982674 C185.835416,582.363006 219.464967,621.456751 229.973373,620.405084 C231.02476,670.068863 256.610069,699.845155 281.830866,722.032182 C294.576087,777.134072 448.5,784.075168 468.167538,722.032182 C493.386775,699.845155 518.972865,670.068863 520.026593,620.405084 C530.532657,621.456751 564.158305,582.363006 569.419143,537.982674 C574.672175,493.602343 566.265763,483.035448 552.598513,480.921912 C552.598513,480.921912 585.178238,240 374.998422,240 Z" id="形状结合" fill="#000000"></path>
                <g id="编组-3" transform="translate(90.000000, 168.000000)" fill="#569DFF">
                    <polygon id="Fill-39" points="0 64 0 0 63 0 63 5 5 5 5 64"></polygon>
                    <polygon id="Fill-40" points="570 64 570 0 507 0 507 5 565 5 565 64"></polygon>
                    <polygon id="Fill-41" points="0 613 0 677 63 677 63 672 5 672 5 613"></polygon>
                    <polygon id="Fill-42" points="570 613 570 677 507 677 507 672 565 672 565 613"></polygon>
                </g>
            </g>
        </g>
    </g>
</svg>