<?xml version="1.0" encoding="UTF-8"?>
<svg width="164px" height="114px" viewBox="0 0 164 114" version="1.1" xmlns="http://www.w3.org/2000/svg" xmlns:xlink="http://www.w3.org/1999/xlink">
    <!-- Generator: Sketch 60 (88103) - https://sketch.com -->
    <title>身份证</title>
    <desc>Created with Sketch.</desc>
    <g id="实名认证" stroke="none" stroke-width="1" fill="none" fill-rule="evenodd">
        <g id="认证方式" transform="translate(-64.000000, -283.000000)">
            <g id="编组-2" transform="translate(64.000000, 283.000000)">
                <rect id="矩形" fill="#F3F8FF" x="0" y="0" width="164" height="114"></rect>
                <polygon id="矩形" fill="#338BFE" points="0 0 2.66666667 0 16 0 16 1.77777778 1.77777778 1.77777778 1.77777778 16 0 16"></polygon>
                <polygon id="矩形备份-6" fill="#338BFE" transform="translate(156.000000, 8.000000) scale(-1, 1) translate(-156.000000, -8.000000) " points="148 0 150.666667 0 164 0 164 1.77777778 149.777778 1.77777778 149.777778 16 148 16"></polygon>
                <polygon id="矩形备份-7" fill="#338BFE" transform="translate(156.000000, 106.000000) scale(-1, -1) translate(-156.000000, -106.000000) " points="148 98 150.666667 98 164 98 164 99.7777778 149.777778 99.7777778 149.777778 114 148 114"></polygon>
                <polygon id="矩形备份-8" fill="#338BFE" transform="translate(8.000000, 106.000000) scale(1, -1) translate(-8.000000, -106.000000) " points="0 98 2.66666667 98 16 98 16 99.7777778 1.77777778 99.7777778 1.77777778 114 0 114"></polygon>
                <g id="编组" transform="translate(14.000000, 14.000000)">
                    <rect id="矩形" fill="#FCFEFE" x="0" y="0" width="136" height="86" rx="4"></rect>
                    <path d="M107.427027,51.1625 C107.252703,49.41875 107.310811,48.125 107.310811,46.49375 C108.124324,46.04375 111.02973,43.34375 111.262162,41.09375 C111.901351,41.0375 112.947297,40.41875 113.237838,37.94375 C113.412162,36.65 112.772973,35.8625 112.366216,35.6375 C113.412162,32.54375 113.877027,22.86875 106.555405,21.9125 C105.8,20.675 103.882432,20 101.383784,20 C91.3891892,20.16875 88.4256757,27.425 90.6337838,35.69375 C90.227027,35.91875 89.5878378,36.65 89.7621622,38 C90.0527027,40.475 91.0986486,41.09375 91.7378378,41.15 C91.9702703,43.45625 94.8756757,46.15625 95.6891892,46.55 C95.6891892,48.18125 95.7472973,49.41875 95.572973,51.21875 C93.5972973,56.39375 80.6391892,53.69375 80,65 L123,65 C122.651351,53.525 109.402703,56.39375 107.427027,51.1625 Z" id="路径" fill="#1066FE" fill-rule="nonzero"></path>
                    <rect id="矩形" fill="#C1E2FB" x="12" y="24" width="15" height="5"></rect>
                    <rect id="矩形备份-3" fill="#E7F4FA" x="34" y="24" width="31" height="5"></rect>
                    <rect id="矩形备份-4" fill="#E7F4FA" x="34" y="41" width="40" height="5"></rect>
                    <rect id="矩形备份-5" fill="#E7F4FA" x="34" y="58" width="40" height="5"></rect>
                    <rect id="矩形备份" fill="#C1E2FB" x="12" y="41" width="15" height="5"></rect>
                    <rect id="矩形备份-2" fill="#C1E2FB" x="12" y="58" width="15" height="5"></rect>
                </g>
            </g>
        </g>
    </g>
</svg>