<?xml version="1.0" encoding="UTF-8"?>
<svg width="88px" height="88px" viewBox="0 0 88 88" version="1.1" xmlns="http://www.w3.org/2000/svg" xmlns:xlink="http://www.w3.org/1999/xlink">
    <!-- Generator: Sketch 60 (88103) - https://sketch.com -->
    <title>返回上一步 白</title>
    <desc>Created with Sketch.</desc>
    <defs>
        <rect id="path-1" x="0" y="0" width="88" height="88"></rect>
    </defs>
    <g id="返回上一步-白" stroke="none" stroke-width="1" fill="none" fill-rule="evenodd">
        <mask id="mask-2" fill="white">
            <use xlink:href="#path-1"></use>
        </mask>
        <use id="Mask" fill="#D8D8D8" opacity="0" xlink:href="#path-1"></use>
        <path d="M56.0406217,53.8261316 L36.2495085,34.0350184 L36.2495085,34.0350184 L51.5833751,33.8826827 C52.3680992,33.8748867 53.0001401,33.2365356 53.0001401,32.4517728 C53.0001401,31.6688554 52.3662237,31.0337721 51.5833076,31.0323322 L34.0056368,31.0000052 C32.3487854,30.9969581 31.0031717,32.3376314 31.0001246,33.9944828 C31.0001212,33.9963151 31.0001195,33.9981473 31.0001195,33.9999796 L31,51.4944026 C30.9999943,52.3228656 31.6715917,52.9944721 32.5000547,52.9944778 C32.5000581,52.9944778 32.5000615,52.9944778 32.5000649,52.9944778 C33.3303724,52.9944778 34.0052333,52.3247295 34.0115473,51.494446 L34.1281881,36.1563387 L34.1281881,36.1563387 L53.9193013,55.9474519 C54.5050878,56.5332384 55.4548352,56.5332384 56.0406217,55.9474519 C56.6264081,55.3616655 56.6264081,54.411918 56.0406217,53.8261316 Z" id="合并形状" fill="#FFFFFF" mask="url(#mask-2)" transform="translate(43.739981, 43.693396) rotate(-45.000000) translate(-43.739981, -43.693396) "></path>
    </g>
</svg>