<?xml version="1.0" encoding="UTF-8"?>
<svg width="16px" height="16px" viewBox="0 0 16 16" version="1.1" xmlns="http://www.w3.org/2000/svg" xmlns:xlink="http://www.w3.org/1999/xlink">
    <!-- Generator: Sketch 57 (83077) - https://sketch.com -->
    <title>Fill 1</title>
    <desc>Created with Sketch.</desc>
    <g id="Page-1" stroke="none" stroke-width="1" fill="none" fill-rule="evenodd">
        <g id="设置模板" transform="translate(-78.000000, -402.000000)" fill="#0073BD">
            <g id="Fill-4" transform="translate(78.000000, 402.000000)">
                <path d="M16.0044627,15.9921819 L8.97610659,15.9921819 L8.97225929,13.6321198 C8.97189511,13.4087175 9.119775,13.2121818 9.3345356,13.1506465 L9.86029709,13 L9.86029709,13 L11.2049813,10.9825428 C10.6019145,10.5531041 10.2435283,9.85880711 10.2426846,9.11851809 C10.2426846,7.84949993 11.2714562,6.82071038 12.5404923,6.82071038 C13.8095105,6.82071038 14.8383,7.84949993 14.8383,9.11851809 C14.8383,9.88785283 14.456828,10.5652394 13.8759853,10.9825428 L15.2206157,13 L15.655865,13.1421965 C15.8612008,13.2092799 16.000238,13.4006443 16.0005902,13.6166602 L16.0044627,15.9921819 L16.0044627,15.9921819 Z M13.9191949,9.11851809 C13.9189795,8.6258358 13.6560061,8.1706006 13.2291704,7.9243941 C12.8024065,7.67818759 12.2766753,7.6783312 11.850055,7.92487879 C11.4234167,8.17135457 11.1607306,8.62675134 11.1608741,9.11943362 C11.1611614,9.88112097 11.778805,10.4984055 12.5404923,10.4981363 C13.3021617,10.497849 13.9193924,9.88020544 13.9191949,9.11851809 Z M13.0248271,11.3630274 C12.7057011,11.43259 12.3752835,11.43259 12.0560678,11.3630274 L10.9720003,13 L13.9750216,13 L13.0248271,11.3630274 Z M9.97502159,15.0221843 L14.9750216,15.0221843 L14.9750216,14.0001332 L9.97502159,14.0001332 L9.97502159,15.0221843 Z M13.5,1 L2.42911213,1 C2.15296976,1 1.92911213,1.22385763 1.92911213,1.5 L1.92911213,14.5083686 C1.92911213,14.784511 2.15296976,15.0083686 2.42911213,15.0083686 L6.53163356,15.0083686 C6.805465,15.0083686 7.02744924,15.2303529 7.02744924,15.5041843 C7.02744924,15.7780158 6.805465,16 6.53163356,16 L2,16 C1.44771525,16 1,15.5522847 1,15 L1,1 C1,0.44771525 1.44771525,-9.09393249e-13 2,-9.09494702e-13 L14,-9.09494702e-13 C14.5522847,-9.09596155e-13 15,0.44771525 15,1 L15,4.49300968 C15,4.76915206 14.7761424,4.99300968 14.5,4.99300968 C14.2238576,4.99300968 14,4.76915206 14,4.49300968 L14,1.5 C14,1.22385763 13.7761424,1 13.5,1 Z M3.42835545,11.0217011 L7.4853188,11.0217011 C7.76146117,11.0217011 7.9853188,10.7978434 7.9853188,10.5217011 C7.9853188,10.2455587 7.76146117,10.0217011 7.4853188,10.0217011 L3.42835545,10.0217011 C3.15221307,10.0217011 2.92835545,10.2455587 2.92835545,10.5217011 C2.92835545,10.7978434 3.15221307,11.0217011 3.42835545,11.0217011 Z M3.42835545,5.02170105 L12.4953025,5.02170105 C12.7714449,5.02170105 12.9953025,4.79784343 12.9953025,4.52170105 C12.9953025,4.24555868 12.7714449,4.02170105 12.4953025,4.02170105 L3.42835545,4.02170105 C3.15221307,4.02170105 2.92835545,4.24555868 2.92835545,4.52170105 C2.92835545,4.79784343 3.15221307,5.02170105 3.42835545,5.02170105 Z M3.42159571,8.02003996 L9.50675974,8.02003996 C9.77916881,8.02003996 10,7.79920877 10,7.5267997 C10,7.25439062 9.77916881,7.03355944 9.50675974,7.03355944 L3.42159571,7.03355944 C3.14918663,7.03355944 2.92835545,7.25439062 2.92835545,7.5267997 C2.92835545,7.79920877 3.14918663,8.02003996 3.42159571,8.02003996 Z" id="Fill-1"></path>
            </g>
        </g>
    </g>
</svg>