<?xml version="1.0" encoding="UTF-8"?>
<svg width="16px" height="16px" viewBox="0 0 16 16" version="1.1" xmlns="http://www.w3.org/2000/svg" xmlns:xlink="http://www.w3.org/1999/xlink">
    <!-- Generator: Sketch 57 (83077) - https://sketch.com -->
    <title>Combined Shape</title>
    <desc>Created with Sketch.</desc>
    <g id="Page-1" stroke="none" stroke-width="1" fill="none" fill-rule="evenodd">
        <g id="设置模板hover" transform="translate(-553.000000, -327.000000)" fill="#FFFFFF">
            <g id="Group" transform="translate(359.000000, 116.000000)">
                <path d="M201.999606,211 C204.047063,211 206.094833,211.78089 207.656598,213.343236 C210.781046,216.467206 210.781046,221.532951 207.657125,224.657311 C206.094989,226.219091 204.047688,227 202.000153,227 C199.952832,227 197.905219,226.219091 196.342926,224.656764 C193.219025,221.532794 193.219025,216.467049 196.342926,213.34308 C197.905082,211.78089 199.952383,211 201.999606,211 Z M204.505941,216.005078 C204.37361,216.005078 204.246688,216.057622 204.15319,216.151301 L202.004979,218.299444 L199.856934,216.151301 C199.66194,215.956337 199.346157,215.956337 199.151246,216.151301 C198.956252,216.346327 198.956252,216.66214 199.151246,216.857083 L201.299291,219.005078 L199.151246,221.153141 C199.057582,221.246654 199.004969,221.373597 199.004969,221.50597 C199.004969,221.638343 199.057582,221.765203 199.151246,221.858778 C199.244744,221.952539 199.371749,222.005244 199.50408,222.005078 C199.631727,222.005078 199.759396,221.956415 199.856934,221.858778 L202.004979,219.7108 L204.153025,221.858778 C204.250314,221.956249 204.378045,222.005078 204.505776,222.005078 C204.633527,222.005078 204.761257,221.956415 204.858713,221.858778 C204.952273,221.765203 205.004886,221.638343 205.004886,221.50597 C205.004886,221.373597 204.952273,221.246654 204.858713,221.153141 L202.710668,219.005078 L204.858713,216.857083 C204.952273,216.763508 205.004886,216.636565 205.004969,216.504192 C205.004969,216.371819 204.952439,216.244876 204.858796,216.151301 C204.765298,216.057622 204.638376,216.005078 204.505941,216.005078 Z" id="Combined-Shape"></path>
            </g>
        </g>
    </g>
</svg>