<?xml version="1.0" encoding="UTF-8"?>
<svg width="32px" height="36px" viewBox="0 0 32 36" version="1.1" xmlns="http://www.w3.org/2000/svg" xmlns:xlink="http://www.w3.org/1999/xlink">
    <!-- Generator: Sketch 52.3 (67297) - http://www.bohemiancoding.com/sketch -->
    <title>kurong-2</title>
    <desc>Created with Sketch.</desc>
    <g id="Page-2" stroke="none" stroke-width="1" fill="none" fill-rule="evenodd">
        <g id="本地上传（word模版）" transform="translate(-1757.000000, -325.000000)" fill="#C4CFDC">
            <g id="kurong-2-2" transform="translate(1757.000000, 325.000000)">
                <path d="M17.3007581,32.3576081 L28.7479778,25.7233304 C29.1381697,25.4633211 29.3982298,25.0730784 29.3982298,24.5526532 L29.3982298,11.4145852 L17.9512133,18.0486088 C17.6910007,18.1788422 17.5610215,18.3088214 17.3007581,18.3088214 L17.3007581,32.3576081 Z M14.6991911,32.3576081 L14.6991911,18.3088214 C14.4389785,18.1788422 14.3089993,18.1788422 14.0487359,18.0486088 L2.60156694,11.4145852 L2.60156694,24.5526532 C2.60156694,25.0730784 2.86177953,25.4633211 3.25202219,25.7233304 L14.6991911,32.3576081 Z M28.0975226,9.2032101 L16.6503536,2.5689832 C16.260111,2.30892305 15.739889,2.30892305 15.3494431,2.5689832 L3.90247744,9.2032101 L15.3494431,15.8372846 C15.739889,16.0974971 16.260111,16.0974971 16.6503536,15.8372846 L28.0975226,9.2032101 Z M30.0486342,7.38207767 C31.2193114,8.03232967 32,9.33324018 32,10.7641299 L32,24.6828866 C32,26.1137763 31.2193114,27.4144836 30.0486342,28.064888 L17.9512133,34.9591751 C16.7803329,35.6096303 15.2194639,35.6096303 14.0487359,34.9591751 L1.95111169,28.064888 C0.780434513,27.4144836 0,26.1137763 0,24.6828866 L0,10.7641299 C0,9.33324018 0.780434513,8.03232967 1.95111169,7.38207767 L14.0487359,0.487841439 C15.2194639,-0.162613813 16.7803329,-0.162613813 17.9512133,0.487841439 L30.0486342,7.38207767 Z" id="kurong-2"></path>
            </g>
        </g>
    </g>
</svg>