<?xml version="1.0" encoding="UTF-8"?>
<svg width="16px" height="16px" viewBox="0 0 16 16" version="1.1" xmlns="http://www.w3.org/2000/svg" xmlns:xlink="http://www.w3.org/1999/xlink">
    <!-- Generator: Sketch 57 (83077) - https://sketch.com -->
    <title>Fill 1 Copy</title>
    <desc>Created with Sketch.</desc>
    <g id="Page-1" stroke="none" stroke-width="1" fill="none" fill-rule="evenodd">
        <g id="设置模板hover" transform="translate(-69.000000, -477.000000)" fill="#666666">
            <g id="Fill-1-Copy-2" transform="translate(69.000000, 477.000000)">
                <path d="M15.047516,7.35979006 C15.7624842,7.86041619 15.9362428,8.8458501 15.4356166,9.56081831 L11.5013291,15.1795632 C11.4388323,15.2688179 11.3501966,15.3364974 11.2476324,15.3732781 L9.5,16 C9.22613884,16.0982099 8.92451566,15.9558164 8.82630577,15.6819552 C8.80522461,15.6231698 8.79476429,15.5611042 8.79541324,15.4986564 L8.81444864,13.6669023 C8.81555262,13.5606675 8.84875211,13.4572489 8.90968918,13.3702217 L12.8464877,7.74789073 C13.3471139,7.03292252 14.3325478,6.85916393 15.047516,7.35979006 Z M14,-1.55955249e-11 C14.5522847,-1.55958484e-11 15,0.44771525 15,1 L15,4.82885001 C15,5.10499239 14.7761424,5.32885001 14.5,5.32885001 C14.2238576,5.32885001 14,5.10499239 14,4.82885001 L14,1.5 C14,1.22385763 13.7761424,1 13.5,1 L2.5,1 C2.22385763,1 2,1.22385763 2,1.5 L2,14.5 C2,14.7761424 2.22385763,15 2.5,15 L6.49981167,15 C6.77825076,15 7.00608456,15.2216658 7.01372462,15.5 C7.02109931,15.7686665 6.80928046,15.9924421 6.54061397,15.9998168 L2,16 C1.44771525,16 1,15.5522847 1,15 L1,1 C1,0.44771525 1.44771525,-1.55954234e-11 2,-1.55955249e-11 L14,-1.55955249e-11 Z M14.6704765,7.89825826 C14.3129924,7.6479452 13.8202754,7.73482449 13.5699624,8.09230859 L13.5699624,8.09230859 L9.63708922,13.7090335 C9.5901812,13.7760251 9.55951477,13.8530181 9.54751851,13.9339151 L9.54751851,13.9339151 L9.43616941,14.6848001 C9.42214962,14.7793429 9.43917217,14.8758826 9.484682,14.9599286 C9.60084578,15.1744562 9.86892408,15.2541958 10.0834516,15.138032 L10.0834516,15.138032 L10.7509691,14.7765803 C10.8228845,14.7376391 10.8847457,14.6824889 10.9316537,14.6154973 L10.9316537,14.6154973 L14.8645268,8.99877238 C15.1148399,8.64128828 15.0279606,8.14857132 14.6704765,7.89825826 Z M3.49288648,10.9939708 L7.57875807,10.9939708 C7.85097176,10.9939708 8.07164455,10.773298 8.07164455,10.5010843 C8.07164455,10.2288706 7.85097176,10.0081978 7.57875807,10.0081978 L3.49288648,10.0081978 C3.2206728,10.0081978 3,10.2288706 3,10.5010843 C3,10.773298 3.2206728,10.9939708 3.49288648,10.9939708 Z M3.5,5 L12.5669471,5 C12.8430894,5 13.0669471,4.77614237 13.0669471,4.5 C13.0669471,4.22385763 12.8430894,4 12.5669471,4 L3.5,4 C3.22385763,4 3,4.22385763 3,4.5 C3,4.77614237 3.22385763,5 3.5,5 Z M3.49324026,7.98648052 L10.5504046,7.98648052 C10.8228137,7.98648052 11.0436449,7.76564934 11.0436449,7.49324026 C11.0436449,7.22083119 10.8228137,7 10.5504046,7 L3.49324026,7 C3.22083119,7 3,7.22083119 3,7.49324026 C3,7.76564934 3.22083119,7.98648052 3.49324026,7.98648052 Z" id="Fill-1-Copy"></path>
            </g>
        </g>
    </g>
</svg>