<?xml version="1.0" encoding="UTF-8"?>
<svg width="16px" height="16px" viewBox="0 0 16 16" version="1.1" xmlns="http://www.w3.org/2000/svg" xmlns:xlink="http://www.w3.org/1999/xlink">
    <!-- Generator: Sketch 57 (83077) - https://sketch.com -->
    <title>Fill 1</title>
    <desc>Created with Sketch.</desc>
    <g id="Page-1" stroke="none" stroke-width="1" fill="none" fill-rule="evenodd">
        <g id="设置模板" transform="translate(-78.000000, -360.000000)" fill="#0073BD">
            <g id="编组-3" transform="translate(78.000000, 359.999991)">
                <path d="M10.5990279,16.0000088 C3.5330093,16.033861 1.63424829e-13,16.0507871 1.63424829e-13,16.0507871 L1.63424829e-13,5.50000879 C1.63424829e-13,3.16484952 2.9047619,1.00000879 5.23994745,1.00000879 L15.5,1.00000879 C15.6829885,1.00000879 16,1.31702029 16,1.50000879 L16,11.7446131 C15.9892282,14.0797723 12.9234417,16.0000088 10.5990279,16.0000088 Z M1,15.0507871 L10.5990279,15.0000088 C12.5683415,15.0000088 14.9892282,13.7245934 15,11.7446131 L15,2.00000879 L5.23994745,2.00000879 C3.25986207,2.00000879 1,3.50915165 1,5.50000879 L1,15.0507871 Z" id="Fill-1"></path>
                <path d="M6.5,3.5 C6,3.5 6,3 6,2.98496774 L6,0.5 C6,0.5 6,0.00243991574 6.5,6.61204425e-12 C7,-0.00242232721 6.97249261,0.5 7,0.5 L6.97249261,2.98496774 C6.97249261,3 7,3.5 6.5,3.5 Z M10.5070818,3.5 C10.0141635,3.5 10,3 10,2.98496774 C10,1.32832258 10,0.5 10,0.5 C10,0.5 10.0141836,0.00243991574 10.5070918,3.91908728e-12 C11,-0.00242232722 11,0.5 11.0141836,0.5 L11.0141836,2.98496774 C11.0141836,3 11,3.5 10.5070818,3.5 Z M14.4300164,6.00000879 L1.5,6.00000879 C1.31703777,6.00000879 1.31703777,4.98678095 1.5,4.98678095 L14.4300164,5.00000879 C14.6130049,5.00000879 14.5,5.31702029 14.5,5.50000879 C14.5,5.68289221 14.6130049,6.00000879 14.4300164,6.00000879 Z" id="Fill-2"></path>
                <path d="M6,11.9918829 L6,8.99188289 C5.73099507,9.25008979 5.47351067,9.28365585 5,9.48818787 L5,8.49188289 C5.61341215,8.20136072 6.3483087,8.0353246 6.56353366,7.61567271 L6.97249261,7.61567271 L6.97249261,11.9918829 L6,11.9918829 Z M9.5,7.49188289 C10.360821,7.50265465 11.003517,8.49365468 11.0141836,9.74191741 C11.0141836,11.0009519 10.371619,12.0026546 9.5,11.9918829 C8.62827586,11.9811111 8.01077176,10.9795135 8,9.74191741 C8.03234154,8.50434762 8.63904762,7.52422444 9.5,7.49188289 Z M9.52402285,11.2419259 C10.0082265,11.2526189 10,10.7319818 10,9.74192592 C10.010798,8.73032658 9.99497537,8.22038241 9.5,8.24192592 C9.0156913,8.23115417 9,8.74112461 9,9.74192592 C9,10.7319818 9.03971415,11.2526189 9.52402285,11.2419259 Z" id="Fill-3"></path>
            </g>
        </g>
    </g>
</svg>