<?xml version="1.0" encoding="UTF-8"?>
<svg width="30px" height="30px" viewBox="0 0 30 30" version="1.1" xmlns="http://www.w3.org/2000/svg" xmlns:xlink="http://www.w3.org/1999/xlink">
    <!-- Generator: Sketch 57 (83077) - https://sketch.com -->
    <title>合并形状</title>
    <desc>Created with Sketch.</desc>
    <g id="Page-2" stroke="none" stroke-width="1" fill="none" fill-rule="evenodd">
        <g id="发起合同-关键字签署" transform="translate(-1566.000000, -848.000000)" fill="#FFFFFF">
            <g id="上（正常）" transform="translate(1565.000000, 847.000000)">
                <g id="合并形状-2" transform="translate(0.230769, 0.076923)">
                    <path d="M16.4620783,9.09674189 L21.3291003,13.7731782 C21.5973176,14.0308924 21.6058319,14.4572441 21.3481177,14.7254613 L21.3291003,14.7444787 L21.3291003,14.7444787 C21.046746,15.0157765 20.6005693,15.0157765 20.3182149,14.7444787 L16.484,11.061 L16.4840347,22.9230769 C16.4840347,23.1992193 16.260177,23.4230769 15.9840347,23.4230769 L15.5544269,23.4230769 C15.2782845,23.4230769 15.0544269,23.1992193 15.0544269,22.9230769 L15.054,11.06 L11.2202466,14.7444787 C10.9378922,15.0157765 10.4917156,15.0157765 10.2093612,14.7444787 C9.94114398,14.4867645 9.93262961,14.0604128 10.1903438,13.7921956 C10.1965557,13.7857305 10.2028961,13.7793901 10.2093612,13.7731782 L15.0763833,9.09674189 C15.4634272,8.72485408 16.0750344,8.72485408 16.4620783,9.09674189 Z" id="合并形状"></path>
                </g>
            </g>
        </g>
    </g>
</svg>