<?xml version="1.0" encoding="UTF-8"?>
<svg width="412px" height="30px" viewBox="0 0 412 30" version="1.1" xmlns="http://www.w3.org/2000/svg" xmlns:xlink="http://www.w3.org/1999/xlink">
    <!-- Generator: Sketch 57 (83077) - https://sketch.com -->
    <title>Rectangle 23</title>
    <desc>Created with Sketch.</desc>
    <g id="Page-1" stroke="none" stroke-width="1" fill="none" fill-rule="evenodd">
        <g id="设置模板" transform="translate(-477.000000, -10.000000)">
            <g id="Group-5" transform="translate(477.000000, 10.000000)">
                <path d="M15,0.5 C6.99187113,0.5 0.5,6.99187113 0.5,15 C0.5,23.0081289 6.99187113,29.5 15,29.5 L122.978971,29.5 C123.933882,29.5 124.847333,29.1098356 125.507574,28.419952 L136.769406,16.6524859 C136.799095,16.6214648 136.828209,16.5898999 136.856736,16.5578074 C138.140949,15.1130677 138.010817,12.9008144 136.566077,11.6166013 L125.054476,1.38406738 C124.413797,0.814574991 123.586402,0.5 122.729203,0.5 L15,0.5 Z" id="Rectangle-23" stroke="#E8ECEF" fill="#F4F6F8"></path>
                <path d="M136.547185,0 L258.475346,0 C259.445547,3.61312264e-14 260.38268,0.352621897 261.112224,0.992197576 L272.785903,11.2262692 C274.447066,12.6825766 274.613135,15.2097861 273.156828,16.8709495 C273.112371,16.9216598 273.066639,16.9712378 273.019675,17.0196358 L261.602489,28.7855642 C260.849181,29.5618819 259.81357,30 258.731839,30 L136.316885,30 C135.7646,30 135.316885,29.5522847 135.316885,29 C135.316885,28.7449983 135.414302,28.4996296 135.589215,28.3140725 L146.317324,16.933099 C147.832633,15.325575 147.757878,12.7940186 146.150354,11.2787095 C146.14291,11.2716921 146.135439,11.2647033 146.12794,11.2577433 L135.866861,1.73291147 C135.462086,1.35717889 135.438541,0.72445181 135.814274,0.31967598 C136.003492,0.115831958 136.269056,-5.99308121e-17 136.547185,0 Z" id="Rectangle-23-Copy" fill="#02ADFF"></path>
                <path d="M272.230301,0.5 C272.091236,0.5 271.958454,0.557915979 271.863845,0.65983799 C271.675979,0.862225905 271.687751,1.17858945 271.890139,1.36645574 L282.151218,10.8912875 C282.163855,10.9030488 282.163855,10.9030488 282.176433,10.9148745 C283.984898,12.6195973 284.068997,15.4675983 282.364274,17.2760628 L271.636165,28.6570363 C271.548709,28.7498148 271.5,28.8724991 271.5,29 C271.5,29.2761424 271.723858,29.5 272,29.5 L396.632924,29.5 C404.641053,29.5 411.132924,23.0081289 411.132924,15 C411.132924,6.99187113 404.641053,0.5 396.632924,0.5 L272.230301,0.5 Z" id="Rectangle-23-Copy-3" stroke="#E8ECEF" fill="#FFFFFF"></path>
                <path d="M40.22,10.004 L41.116,10.004 L41.116,20 L39.968,20 L39.968,11.404 C39.338,12.048 38.554,12.496 37.616,12.776 L37.616,11.628 C38.064,11.502 38.54,11.306 39.016,11.026 C39.492,10.718 39.884,10.382 40.22,10.004 Z M44.462,18.334 C44.686,18.334 44.896,18.418 45.064,18.586 C45.232,18.754 45.316,18.95 45.316,19.202 C45.316,19.44 45.232,19.636 45.064,19.804 C44.896,19.972 44.686,20.056 44.462,20.056 C44.21,20.056 44.014,19.972 43.86,19.804 C43.692,19.636 43.608,19.44 43.608,19.202 C43.608,18.95 43.692,18.754 43.86,18.586 C44.014,18.418 44.21,18.334 44.462,18.334 Z M52.134,8.562 L53.17,8.562 L53.17,12.888 L58.364,12.888 L58.364,13.868 L53.17,13.868 L53.17,19.86 L59.554,19.86 L59.554,20.84 L47.094,20.84 L47.094,19.86 L52.134,19.86 L52.134,8.562 Z M62.648,13.588 C62.186,14.204 61.682,14.806 61.136,15.366 L60.814,14.288 C62.298,12.622 63.39,10.704 64.076,8.548 L65.028,8.996 C64.664,10.074 64.216,11.096 63.656,12.062 L63.656,21.428 L62.648,21.428 L62.648,13.588 Z M65.21,10.354 L67.94,10.354 L68.36,8.548 L69.34,8.646 C69.2,9.234 69.074,9.808 68.948,10.354 L73.176,10.354 L73.176,11.334 L68.696,11.334 C68.542,11.894 68.388,12.44 68.22,12.958 L73.75,12.958 L73.75,13.924 L67.898,13.924 C67.674,14.568 67.436,15.156 67.212,15.702 L72.966,15.702 L72.966,16.57 C72.378,17.55 71.44,18.53 70.152,19.51 C70.81,19.86 71.44,20.238 72.056,20.644 L71.482,21.512 C69.774,20.336 68.01,19.412 66.218,18.74 L66.75,17.956 C67.618,18.292 68.458,18.656 69.27,19.048 C70.376,18.278 71.244,17.48 71.888,16.64 L65.896,16.64 C66.26,15.772 66.61,14.862 66.932,13.924 L64.594,13.924 L64.594,12.958 L67.24,12.958 C67.408,12.412 67.562,11.866 67.702,11.334 L65.21,11.334 L65.21,10.354 Z M75.206,10.928 L81.002,10.928 C80.624,10.186 80.162,9.486 79.602,8.828 L80.61,8.464 C81.142,9.136 81.618,9.962 82.066,10.928 L87.414,10.928 L87.414,11.936 L85.23,11.936 C84.544,14.148 83.508,16.01 82.136,17.494 C83.62,18.754 85.482,19.79 87.722,20.616 L87.176,21.456 C84.852,20.588 82.948,19.51 81.436,18.208 C79.84,19.678 77.852,20.756 75.472,21.442 L74.94,20.56 C77.292,19.93 79.224,18.936 80.736,17.564 C79.112,15.968 77.992,14.092 77.362,11.936 L75.206,11.936 L75.206,10.928 Z M78.356,11.936 C78.958,13.826 79.98,15.464 81.436,16.864 C82.682,15.506 83.592,13.868 84.18,11.936 L78.356,11.936 Z M91.978,8.478 L92.93,8.912 C92.566,10.018 92.104,11.068 91.544,12.062 L91.544,21.414 L90.55,21.414 L90.55,13.602 C90.102,14.218 89.612,14.806 89.08,15.366 L88.758,14.288 C90.242,12.608 91.306,10.662 91.978,8.478 Z M94.33,9.402 L95.324,9.528 C95.212,10.228 95.058,10.9 94.862,11.516 L96.92,11.516 L96.92,8.604 L97.928,8.604 L97.928,11.516 L101.148,11.516 L101.148,12.496 L97.928,12.496 L97.928,15.87 L101.666,15.87 L101.666,16.836 L97.928,16.836 L97.928,21.344 L96.92,21.344 L96.92,16.836 L92.804,16.836 L92.804,15.87 L96.92,15.87 L96.92,12.496 L94.54,12.496 C94.19,13.42 93.756,14.246 93.238,14.974 L92.594,14.134 C93.448,12.846 94.022,11.264 94.33,9.402 Z" id="1.上传文件" fill="#999999" fill-rule="nonzero"></path>
                <path d="M174.34,9.808 C175.264,9.808 176.02,10.074 176.622,10.606 C177.21,11.138 177.518,11.852 177.518,12.72 C177.518,13.588 177.182,14.372 176.538,15.072 C176.188,15.436 175.502,15.982 174.466,16.682 C173.192,17.536 172.464,18.306 172.282,18.978 L177.532,18.978 L177.532,20 L170.868,20 C170.868,19.09 171.19,18.264 171.862,17.522 C172.254,17.074 172.968,16.472 174.032,15.744 C174.816,15.184 175.334,14.778 175.6,14.498 C176.104,13.952 176.37,13.35 176.37,12.706 C176.37,12.09 176.188,11.628 175.824,11.292 C175.46,10.956 174.942,10.788 174.298,10.788 C173.612,10.788 173.08,11.012 172.716,11.488 C172.324,11.936 172.114,12.608 172.1,13.49 L170.952,13.49 C170.952,12.37 171.274,11.474 171.89,10.816 C172.506,10.144 173.332,9.808 174.34,9.808 Z M180.248,18.334 C180.472,18.334 180.682,18.418 180.85,18.586 C181.018,18.754 181.102,18.95 181.102,19.202 C181.102,19.44 181.018,19.636 180.85,19.804 C180.682,19.972 180.472,20.056 180.248,20.056 C179.996,20.056 179.8,19.972 179.646,19.804 C179.478,19.636 179.394,19.44 179.394,19.202 C179.394,18.95 179.478,18.754 179.646,18.586 C179.8,18.418 179.996,18.334 180.248,18.334 Z M184.35,8.828 C185.232,9.528 185.974,10.214 186.576,10.9 L185.89,11.6 C185.344,10.928 184.602,10.228 183.65,9.486 L184.35,8.828 Z M182.726,12.874 L185.652,12.874 L185.652,19.09 C186.156,18.67 186.702,18.194 187.276,17.648 L187.556,18.712 C186.674,19.538 185.736,20.266 184.756,20.91 L184.364,20.014 C184.56,19.818 184.672,19.608 184.672,19.384 L184.672,13.84 L182.726,13.84 L182.726,12.874 Z M187.696,14.512 L194.36,14.512 L194.36,15.436 C193.912,16.752 193.184,17.886 192.162,18.838 C193.114,19.496 194.276,20.07 195.648,20.574 L195.102,21.442 C193.646,20.854 192.414,20.196 191.434,19.44 C190.314,20.28 188.928,20.938 187.29,21.442 L186.73,20.588 C188.284,20.126 189.586,19.524 190.636,18.782 C189.572,17.802 188.858,16.71 188.466,15.492 L187.696,15.492 L187.696,14.512 Z M189.418,15.492 C189.782,16.5 190.426,17.41 191.35,18.208 C192.246,17.424 192.918,16.528 193.366,15.492 L189.418,15.492 Z M188.774,9.108 L193.478,9.108 L193.478,12.132 C193.478,12.482 193.66,12.664 194.024,12.664 L195.312,12.664 L195.312,13.588 L193.772,13.588 C192.904,13.588 192.484,13.168 192.484,12.342 L192.484,10.06 L189.768,10.06 L189.768,10.55 C189.768,12.034 189.04,13.182 187.612,13.994 L186.94,13.224 C188.158,12.622 188.774,11.768 188.774,10.662 L188.774,9.108 Z M197.09,12.524 L202.536,12.524 L202.62,11.712 L198.028,11.712 L198.028,9.094 L208.164,9.094 L208.164,11.712 L203.628,11.712 L203.544,12.524 L209.116,12.524 L209.116,13.294 L203.432,13.294 C203.376,13.574 203.334,13.84 203.278,14.092 L207.338,14.092 L207.338,20.266 L209.368,20.266 L209.368,21.078 L196.838,21.078 L196.838,20.266 L198.868,20.266 L198.868,14.092 L202.27,14.092 C202.326,13.826 202.368,13.56 202.424,13.294 L197.09,13.294 L197.09,12.524 Z M199.848,20.266 L206.344,20.266 L206.344,19.342 L199.848,19.342 L199.848,20.266 Z M199.848,18.712 L206.344,18.712 L206.344,17.83 L199.848,17.83 L199.848,18.712 Z M199.848,17.186 L206.344,17.186 L206.344,16.304 L199.848,16.304 L199.848,17.186 Z M199.848,15.674 L206.344,15.674 L206.344,14.792 L199.848,14.792 L199.848,15.674 Z M207.212,10.998 L207.212,9.836 L205.126,9.836 L205.126,10.998 L207.212,10.998 Z M204.202,10.998 L204.202,9.836 L201.99,9.836 L201.99,10.998 L204.202,10.998 Z M201.08,10.998 L201.08,9.836 L198.994,9.836 L198.994,10.998 L201.08,10.998 Z M214.982,9.724 L217.026,9.724 L217.026,8.604 L217.964,8.604 L217.964,9.724 L220.218,9.724 L220.218,8.604 L221.17,8.604 L221.17,9.724 L223.34,9.724 L223.34,10.62 L221.17,10.62 L221.17,11.67 L220.218,11.67 L220.218,10.62 L217.964,10.62 L217.964,11.67 L217.026,11.67 L217.026,10.62 L214.982,10.62 L214.982,9.724 Z M218.916,18.516 C218.748,18.866 218.538,19.188 218.314,19.468 C217.67,20.28 216.55,20.91 214.94,21.372 L214.576,20.532 C215.976,20.154 216.97,19.608 217.586,18.894 C217.726,18.712 217.866,18.53 217.978,18.334 L214.716,18.334 L214.716,17.41 L218.398,17.41 C218.51,17.074 218.594,16.71 218.664,16.346 L215.724,16.346 L215.724,12.104 L222.43,12.104 L222.43,16.346 L219.56,16.346 C219.504,16.738 219.42,17.088 219.336,17.41 L223.368,17.41 L223.368,18.334 L219.826,18.334 C220.638,19.286 221.87,20.056 223.522,20.644 L222.85,21.442 C221.03,20.658 219.728,19.692 218.916,18.516 Z M213.624,14.232 L213.624,21.358 L212.672,21.358 L212.672,14.386 C212.238,15.702 211.692,16.906 211.02,17.984 L210.586,16.892 C211.552,15.548 212.252,14.036 212.672,12.328 L212.672,12.244 L211.048,12.244 L211.048,11.334 L212.672,11.334 L212.672,8.618 L213.624,8.618 L213.624,11.334 L215.094,11.334 L215.094,12.244 L213.624,12.244 L213.624,13.168 C214.226,13.896 214.842,14.736 215.486,15.674 L214.954,16.472 C214.436,15.548 213.988,14.806 213.624,14.232 Z M221.52,15.562 L221.52,14.61 L216.634,14.61 L216.634,15.562 L221.52,15.562 Z M216.634,13.854 L221.52,13.854 L221.52,12.916 L216.634,12.916 L216.634,13.854 Z M224.852,11.278 L226.84,11.278 L226.84,8.576 L227.862,8.576 L227.862,11.278 L229.528,11.278 L229.528,12.258 L227.862,12.258 L227.862,12.986 C228.478,13.644 229.094,14.386 229.724,15.198 L229.15,16.052 C228.646,15.184 228.226,14.484 227.862,13.952 L227.862,21.33 L226.84,21.33 L226.84,14.33 C226.378,15.702 225.776,16.948 225.048,18.068 L224.614,16.976 C225.65,15.59 226.378,14.022 226.826,12.258 L224.852,12.258 L224.852,11.278 Z M236.528,8.674 L237.032,9.612 C235.268,10.116 233.322,10.41 231.18,10.494 L231.18,12.622 L236.71,12.622 L236.71,13.378 C236.57,15.254 235.968,16.906 234.904,18.32 C235.632,19.146 236.528,19.86 237.592,20.448 L237.074,21.344 C235.954,20.728 235.016,19.972 234.26,19.104 C233.462,19.972 232.482,20.742 231.334,21.414 L230.676,20.644 C231.88,19.972 232.86,19.188 233.644,18.32 C232.692,16.976 232.09,15.408 231.81,13.602 L231.18,13.602 L231.18,15.03 C231.11,17.69 230.536,19.818 229.458,21.4 L228.73,20.644 C229.626,19.3 230.116,17.424 230.2,15.03 L230.2,9.64 C232.538,9.598 234.652,9.276 236.528,8.674 Z M234.274,17.522 C235.086,16.36 235.576,15.058 235.772,13.602 L232.706,13.602 C232.958,15.086 233.476,16.402 234.274,17.522 Z" id="2.设置模板" fill="#FFFFFF" fill-rule="nonzero"></path>
                <path d="M311.298,9.808 C312.25,9.808 313.034,10.046 313.622,10.536 C314.196,11.026 314.49,11.684 314.49,12.524 C314.49,13.644 313.944,14.4 312.852,14.764 C313.44,14.946 313.888,15.226 314.196,15.618 C314.532,16.01 314.7,16.5 314.7,17.088 C314.7,17.998 314.378,18.74 313.748,19.314 C313.104,19.902 312.264,20.196 311.228,20.196 C310.276,20.196 309.506,19.944 308.904,19.468 C308.19,18.88 307.798,18.026 307.714,16.906 L308.876,16.906 C308.904,17.69 309.17,18.292 309.66,18.698 C310.08,19.034 310.598,19.216 311.228,19.216 C311.942,19.216 312.516,19.006 312.95,18.6 C313.342,18.208 313.552,17.718 313.552,17.13 C313.552,16.528 313.356,16.066 312.964,15.73 C312.572,15.394 312.04,15.24 311.34,15.24 L310.528,15.24 L310.528,14.344 L311.298,14.344 C311.97,14.344 312.474,14.19 312.824,13.896 C313.174,13.588 313.356,13.154 313.356,12.594 C313.356,12.034 313.174,11.6 312.838,11.292 C312.474,10.956 311.956,10.802 311.312,10.802 C310.64,10.802 310.122,10.97 309.744,11.334 C309.352,11.698 309.128,12.216 309.058,12.888 L307.924,12.888 C308.008,11.922 308.372,11.166 308.988,10.62 C309.576,10.074 310.346,9.808 311.298,9.808 Z M317.248,18.334 C317.472,18.334 317.682,18.418 317.85,18.586 C318.018,18.754 318.102,18.95 318.102,19.202 C318.102,19.44 318.018,19.636 317.85,19.804 C317.682,19.972 317.472,20.056 317.248,20.056 C316.996,20.056 316.8,19.972 316.646,19.804 C316.478,19.636 316.394,19.44 316.394,19.202 C316.394,18.95 316.478,18.754 316.646,18.586 C316.8,18.418 316.996,18.334 317.248,18.334 Z M332.018,10.06 L332.018,13.196 L330.996,13.196 L330.996,11.04 L321.168,11.04 L321.168,13.196 L320.146,13.196 L320.146,10.06 L325.522,10.06 C325.354,9.584 325.186,9.15 324.99,8.758 L326.124,8.562 C326.306,9.01 326.488,9.5 326.656,10.06 L332.018,10.06 Z M322.148,12.664 L329.988,12.664 L329.988,13.644 L322.148,13.644 L322.148,12.664 Z M320.006,15.296 L332.2,15.296 L332.2,16.262 L328.238,16.262 L328.238,19.58 C328.238,20 328.434,20.224 328.84,20.224 L330.702,20.224 C330.954,20.224 331.122,20.126 331.22,19.944 C331.332,19.734 331.416,19.104 331.472,18.04 L332.424,18.348 C332.34,19.692 332.172,20.518 331.92,20.798 C331.696,21.05 331.36,21.19 330.884,21.19 L328.518,21.19 C327.65,21.19 327.23,20.714 327.23,19.79 L327.23,16.262 L324.878,16.262 L324.878,16.36 C324.836,17.732 324.458,18.838 323.758,19.678 C323.058,20.434 321.924,21.036 320.356,21.47 L319.782,20.574 C321.308,20.182 322.372,19.664 322.988,19.006 C323.548,18.334 323.842,17.452 323.884,16.36 L323.884,16.262 L320.006,16.262 L320.006,15.296 Z M343.512,8.52 C344.184,9.024 344.758,9.542 345.234,10.06 L344.59,10.704 L346.298,10.704 L346.298,11.67 L341.986,11.67 C342.084,13.406 342.266,14.778 342.518,15.786 C342.602,16.136 342.7,16.458 342.798,16.766 C343.498,15.646 344.058,14.33 344.492,12.832 L345.402,13.224 C344.842,15.072 344.114,16.64 343.218,17.9 C343.414,18.348 343.624,18.74 343.848,19.062 C344.31,19.734 344.688,20.07 344.968,20.07 C345.22,20.056 345.458,19.328 345.668,17.886 L346.578,18.39 C346.242,20.252 345.766,21.19 345.136,21.19 C344.548,21.19 343.918,20.77 343.246,19.93 C342.994,19.594 342.756,19.202 342.546,18.768 C341.566,19.916 340.418,20.77 339.102,21.358 L338.542,20.518 C339.942,19.888 341.132,18.964 342.098,17.746 C341.902,17.228 341.72,16.668 341.566,16.066 C341.258,14.89 341.062,13.42 340.95,11.67 L336.148,11.67 L336.148,13.994 L339.578,13.994 C339.55,16.36 339.438,17.886 339.256,18.572 C339.074,19.174 338.64,19.482 337.94,19.51 C337.604,19.51 337.198,19.482 336.75,19.454 L336.442,18.544 C336.988,18.572 337.45,18.586 337.828,18.586 C338.136,18.572 338.332,18.362 338.416,17.97 C338.5,17.494 338.542,16.486 338.57,14.946 L336.148,14.946 L336.148,15.366 C336.092,17.872 335.532,19.888 334.496,21.4 L333.726,20.714 C334.622,19.426 335.084,17.648 335.126,15.366 L335.126,10.704 L340.908,10.704 C340.88,10.004 340.866,9.29 340.866,8.534 L341.902,8.534 C341.902,9.318 341.916,10.032 341.944,10.704 L344.562,10.704 C344.142,10.2 343.582,9.682 342.868,9.136 L343.512,8.52 Z M351.982,9.724 L354.026,9.724 L354.026,8.604 L354.964,8.604 L354.964,9.724 L357.218,9.724 L357.218,8.604 L358.17,8.604 L358.17,9.724 L360.34,9.724 L360.34,10.62 L358.17,10.62 L358.17,11.67 L357.218,11.67 L357.218,10.62 L354.964,10.62 L354.964,11.67 L354.026,11.67 L354.026,10.62 L351.982,10.62 L351.982,9.724 Z M355.916,18.516 C355.748,18.866 355.538,19.188 355.314,19.468 C354.67,20.28 353.55,20.91 351.94,21.372 L351.576,20.532 C352.976,20.154 353.97,19.608 354.586,18.894 C354.726,18.712 354.866,18.53 354.978,18.334 L351.716,18.334 L351.716,17.41 L355.398,17.41 C355.51,17.074 355.594,16.71 355.664,16.346 L352.724,16.346 L352.724,12.104 L359.43,12.104 L359.43,16.346 L356.56,16.346 C356.504,16.738 356.42,17.088 356.336,17.41 L360.368,17.41 L360.368,18.334 L356.826,18.334 C357.638,19.286 358.87,20.056 360.522,20.644 L359.85,21.442 C358.03,20.658 356.728,19.692 355.916,18.516 Z M350.624,14.232 L350.624,21.358 L349.672,21.358 L349.672,14.386 C349.238,15.702 348.692,16.906 348.02,17.984 L347.586,16.892 C348.552,15.548 349.252,14.036 349.672,12.328 L349.672,12.244 L348.048,12.244 L348.048,11.334 L349.672,11.334 L349.672,8.618 L350.624,8.618 L350.624,11.334 L352.094,11.334 L352.094,12.244 L350.624,12.244 L350.624,13.168 C351.226,13.896 351.842,14.736 352.486,15.674 L351.954,16.472 C351.436,15.548 350.988,14.806 350.624,14.232 Z M358.52,15.562 L358.52,14.61 L353.634,14.61 L353.634,15.562 L358.52,15.562 Z M353.634,13.854 L358.52,13.854 L358.52,12.916 L353.634,12.916 L353.634,13.854 Z M365.156,8.716 L366.136,8.716 L366.136,12.426 L366.962,12.426 L366.962,13.42 L363.658,13.42 L363.658,14.134 C363.658,14.568 363.644,14.988 363.63,15.394 L366.318,15.394 L366.318,21.344 L365.324,21.344 L365.324,16.36 L363.574,16.36 C363.406,18.46 363.028,20.056 362.426,21.176 L361.67,20.504 C362.314,19.174 362.65,17.046 362.664,14.134 L362.664,8.996 L363.658,8.996 L363.658,12.426 L365.156,12.426 L365.156,8.716 Z M368.684,13.574 L368.684,15.114 C368.628,17.718 368.166,19.79 367.326,21.33 L366.626,20.588 C367.326,19.272 367.704,17.438 367.76,15.114 L367.76,9.556 C369.958,9.528 371.946,9.234 373.71,8.674 L374.214,9.584 C372.562,10.06 370.714,10.34 368.684,10.424 L368.684,12.622 L373.864,12.622 L373.864,13.476 C373.542,15.422 372.926,17.06 372.03,18.39 C372.716,19.314 373.556,20.014 374.55,20.518 L374.046,21.4 C372.996,20.854 372.114,20.126 371.414,19.202 C370.644,20.098 369.72,20.84 368.656,21.414 L368.166,20.518 C369.216,19.944 370.098,19.216 370.826,18.348 C370.028,17.046 369.468,15.45 369.146,13.574 L368.684,13.574 Z M370.056,13.574 C370.364,15.1 370.826,16.402 371.442,17.494 C372.142,16.374 372.632,15.058 372.884,13.574 L370.056,13.574 Z" id="3.完成模版" fill="#999999" fill-rule="nonzero"></path>
            </g>
        </g>
    </g>
</svg>