<?xml version="1.0" encoding="UTF-8"?>
<svg width="16px" height="16px" viewBox="0 0 16 16" version="1.1" xmlns="http://www.w3.org/2000/svg" xmlns:xlink="http://www.w3.org/1999/xlink">
    <!-- Generator: Sketch 57 (83077) - https://sketch.com -->
    <title>Fill 3</title>
    <desc>Created with Sketch.</desc>
    <g id="Page-1" stroke="none" stroke-width="1" fill="none" fill-rule="evenodd">
        <g id="设置模板" transform="translate(-78.000000, -276.000000)" fill="#0073BD">
            <g id="编组-2" transform="translate(78.000000, 275.600637)">
                <path d="M14.0010121,1.93845428 L14.0010121,14.9220265 C14.0010121,15.1981689 13.7771545,15.4220265 13.5010121,15.4220265 C13.5005508,15.4220265 13.5000895,15.4220259 13.4996282,15.4220246 L5.99493955,15.4012533 L5.99493955,15.4012533 L1.99898791,11.9052444 L1.99898791,1.91814156 C1.99898791,1.64199918 2.22284553,1.41814156 2.49898791,1.41814156 C2.49929562,1.41814156 2.49960333,1.41814184 2.49991104,1.41814241 L13.5019352,1.43845513 C13.7777167,1.4389643 14.0010121,1.66267234 14.0010121,1.93845428 Z M14.0015828,0.43893659 L2.00158278,0.419943164 C1.44929873,0.419069017 1.0008754,0.86607507 1.00000125,1.41835913 C1.00000042,1.41888672 1,1.41941432 1,1.41994191 L1,12.4268332 L1,12.4268332 L5.49544559,16.400113 L13.9976686,16.4199351 C14.5499518,16.4212227 14.9987097,15.9745525 14.9999973,15.4222693 C14.9999991,15.4214921 15,15.420715 15,15.4199379 L15,1.43893534 C15,0.887268602 14.5532488,0.439809759 14.0015828,0.43893659 Z" id="Fill-1" transform="translate(8.000000, 8.419940) scale(1, -1) translate(-8.000000, -8.419940) "></path>
                <path d="M4,7.92316281 C4,7.64693358 4.22377064,7.42292239 4.49999971,7.4226256 L6.49838864,7.42047847 C6.77512345,7.42018114 6.99970238,7.64427799 6.99999971,7.9210128 C6.9999999,7.92119226 7,7.92137171 7,7.92155117 C7,8.19858363 6.77542082,8.42316281 6.49838835,8.42316281 L4.5,8.42316281 C4.22385763,8.42316281 4,8.19930519 4,7.92316281 Z M4,9.93516173 C4,9.66405953 4.21919389,9.44398292 4.4902939,9.44289335 L11.5097061,9.41468192 C11.7794018,9.41359799 11.9989121,9.6313509 11.9999961,9.90104664 C11.9999987,9.90170084 12,9.90235505 12,9.90300926 C12,10.1741115 11.7808061,10.3941881 11.5097061,10.3952776 L4.4902939,10.4234891 C4.22059816,10.424573 4.00108787,10.2068201 4.00000394,9.93712435 C4.00000131,9.93647014 4,9.93581594 4,9.93516173 Z M4,11.9560188 C4,11.6799409 4.22321686,11.4558251 4.49929249,11.4547156 L11.5007075,11.4265765 C11.7753531,11.4254726 11.9988922,11.6472221 11.999996,11.9218677 C11.9999987,11.9225339 12,11.9232001 12,11.9238663 C12,12.1999442 11.7767831,12.4240599 11.5007075,12.4251695 L4.49929249,12.4533086 C4.2246469,12.4544124 4.00110783,12.232663 4.00000402,11.9580174 C4.00000134,11.9573512 4,11.956685 4,11.9560188 Z" id="Fill-2"></path>
                <polygon id="Fill-3" transform="translate(4.000058, 3.431032) scale(1, -1) translate(-4.000058, -3.431032) " points="5.00011526 5.44212382 5.00011526 2.44212382 2 2.44212382 2.00011526 1.42007275 6.00011526 1.41993952 6.00011526 5.44212382"></polygon>
            </g>
        </g>
    </g>
</svg>