<?xml version="1.0" encoding="UTF-8"?>
<svg width="30px" height="30px" viewBox="0 0 30 30" version="1.1" xmlns="http://www.w3.org/2000/svg" xmlns:xlink="http://www.w3.org/1999/xlink">
    <!-- Generator: Sketch 57 (83077) - https://sketch.com -->
    <title>合并形状</title>
    <desc>Created with Sketch.</desc>
    <g id="Page-2" stroke="none" stroke-width="1" fill="none" fill-rule="evenodd">
        <g id="发起合同-关键字签署" transform="translate(-1566.000000, -894.000000)" fill="#FFFFFF">
            <g id="下-正常" transform="translate(1581.000000, 908.500000) scale(1, -1) translate(-1581.000000, -908.500000) translate(1566.000000, 893.000000)">
                <g id="编组-2" transform="translate(0.000000, 1.000000)">
                    <path d="M15.6928475,7.17366497 L20.5598696,11.8501013 C20.8280868,12.1078155 20.8366012,12.5341672 20.5788869,12.8023844 L20.5598696,12.8214018 L20.5598696,12.8214018 C20.2775152,13.0926996 19.8313385,13.0926996 19.5489842,12.8214018 L15.7147692,9.13792308 L15.7148039,21 C15.7148039,21.2761424 15.4909463,21.5 15.2148039,21.5 L14.7851961,21.5 C14.5090537,21.5 14.2851961,21.2761424 14.2851961,21 L14.2847692,9.13692308 L10.4510158,12.8214018 C10.1686615,13.0926996 9.7224848,13.0926996 9.44013045,12.8214018 C9.17191321,12.5636876 9.16339884,12.1373359 9.42111307,11.8691187 C9.42732498,11.8626536 9.43366537,11.8563132 9.44013045,11.8501013 L14.3071525,7.17366497 C14.6941964,6.80177716 15.3058036,6.80177716 15.6928475,7.17366497 Z" id="合并形状"></path>
                </g>
            </g>
        </g>
    </g>
</svg>