<?xml version="1.0" encoding="UTF-8"?>
<svg width="16px" height="16px" viewBox="0 0 16 16" version="1.1" xmlns="http://www.w3.org/2000/svg" xmlns:xlink="http://www.w3.org/1999/xlink">
    <!-- Generator: Sketch 57 (83077) - https://sketch.com -->
    <title>形状结合</title>
    <desc>Created with Sketch.</desc>
    <g id="Page-1" stroke="none" stroke-width="1" fill="none" fill-rule="evenodd">
        <g id="设置模板hover" transform="translate(-77.000000, -318.000000)" fill="#0073BD">
            <g id="编组-4" transform="translate(77.000000, 318.000000)">
                <path d="M14,0 C15.1045695,-2.02906125e-16 16,0.8954305 16,2 L16,14 C16,15.1045695 15.1045695,16 14,16 L2,16 C0.8954305,16 1.3527075e-16,15.1045695 0,14 L0,2 C-1.3527075e-16,0.8954305 0.8954305,2.02906125e-16 2,0 L14,0 Z M14,1 L2,1 C1.44771525,1 1,1.44771525 1,2 L1,2 L1,14 C1,14.5522847 1.44771525,15 2,15 L2,15 L14,15 C14.5522847,15 15,14.5522847 15,14 L15,14 L15,2 C15,1.44771525 14.5522847,1 14,1 L14,1 Z" id="形状结合"></path>
                <rect id="矩形" x="2" y="3" width="12" height="1"></rect>
                <path d="M2.5,7 L11.5,7 C11.7761424,7 12,7.22385763 12,7.5 C12,7.77614237 11.7761424,8 11.5,8 L2.5,8 C2.22385763,8 2,7.77614237 2,7.5 C2,7.22385763 2.22385763,7 2.5,7 Z" id="矩形备份"></path>
                <rect id="矩形备份-2" x="2" y="11" width="6" height="1"></rect>
            </g>
        </g>
    </g>
</svg>