<?xml version="1.0" encoding="UTF-8"?>
<svg width="30px" height="30px" viewBox="0 0 30 30" version="1.1" xmlns="http://www.w3.org/2000/svg" xmlns:xlink="http://www.w3.org/1999/xlink">
    <!-- Generator: Sketch 57 (83077) - https://sketch.com -->
    <title>合并形状</title>
    <desc>Created with Sketch.</desc>
    <g id="Page-2" stroke="none" stroke-width="1" fill="none" fill-rule="evenodd">
        <g id="发起合同-关键字签署" transform="translate(-1566.000000, -940.000000)" fill="#FFFFFF">
            <g id="置地-正常" transform="translate(1581.000000, 955.000000) scale(1, -1) translate(-1581.000000, -955.000000) translate(1566.000000, 940.000000)">
                <g id="编组">
                    <path d="M15.7549409,14.3802808 L20.2831439,18.9084839 C20.5459968,19.1713368 20.5459968,19.5975055 20.2831439,19.8603584 C20.020291,20.1232113 19.5941223,20.1232113 19.3312694,19.8603584 L15.4013875,15.9304765 C15.2061253,15.7352143 14.8895429,15.7352143 14.6942807,15.9304765 L10.7643988,19.8603584 C10.5015459,20.1232113 10.0753772,20.1232113 9.81252428,19.8603584 C9.54967139,19.5975055 9.54967139,19.1713368 9.81252428,18.9084839 L14.3407273,14.3802808 C14.7312516,13.9897565 15.3644166,13.9897565 15.7549409,14.3802808 Z M22.5769231,11.5384615 C22.8530655,11.5384615 23.0769231,11.7623192 23.0769231,12.0384615 L23.0769231,12.3846154 C23.0769231,12.6607578 22.8530655,12.8846154 22.5769231,12.8846154 L7.42307692,12.8846154 C7.14693455,12.8846154 6.92307692,12.6607578 6.92307692,12.3846154 L6.92307692,12.0384615 C6.92307692,11.7623192 7.14693455,11.5384615 7.42307692,11.5384615 L22.5769231,11.5384615 Z" id="合并形状"></path>
                </g>
            </g>
        </g>
    </g>
</svg>