<?xml version="1.0" encoding="UTF-8"?>
<svg width="30px" height="30px" viewBox="0 0 30 30" version="1.1" xmlns="http://www.w3.org/2000/svg" xmlns:xlink="http://www.w3.org/1999/xlink">
    <!-- Generator: Sketch 57 (83077) - https://sketch.com -->
    <title>合并形状</title>
    <desc>Created with Sketch.</desc>
    <g id="Page-2" stroke="none" stroke-width="1" fill="none" fill-rule="evenodd">
        <g id="发起合同-关键字签署" transform="translate(-1566.000000, -802.000000)" fill="#FFFFFF">
            <g id="置顶（正常）" transform="translate(1565.000000, 801.000000)">
                <g id="合并形状-3" transform="translate(0.923077, 0.538462)">
                    <path d="M15.831864,14.8418193 L20.360067,19.3700223 C20.6229199,19.6328752 20.6229199,20.059044 20.360067,20.3218968 C20.0972141,20.5847497 19.6710454,20.5847497 19.4081925,20.3218968 L15.4783106,16.3920149 C15.2830484,16.1967528 14.9664659,16.1967528 14.7712038,16.3920149 L10.8413219,20.3218968 C10.578469,20.5847497 10.1523002,20.5847497 9.88944736,20.3218968 C9.62659447,20.059044 9.62659447,19.6328752 9.88944736,19.3700223 L14.4176504,14.8418193 C14.8081747,14.451295 15.4413397,14.451295 15.831864,14.8418193 Z M22.6538462,12 C22.9299885,12 23.1538462,12.2238576 23.1538462,12.5 L23.1538462,12.8461538 C23.1538462,13.1222962 22.9299885,13.3461538 22.6538462,13.3461538 L7.5,13.3461538 C7.22385763,13.3461538 7,13.1222962 7,12.8461538 L7,12.5 C7,12.2238576 7.22385763,12 7.5,12 L22.6538462,12 Z" id="合并形状"></path>
                </g>
            </g>
        </g>
    </g>
</svg>